<svg width="100" height="100" fill="none" xmlns="http://www.w3.org/2000/svg"><path d="M24 19.4C36.4 7 42.6 1 50 1c7.7 0 13.8 6.1 26 18.4l4.8 4.7C93 36.3 99 42.5 99 50c0 7.6-6 13.7-18.3 26L76 80.8C63.8 93 57.7 99 50 99c-7.6 0-13.8-6-26-18.3L19.4 76C7 63.8 1 57.7 1 50c0-7.6 6.1-13.8 18.4-26l4.7-4.7z" fill="url(#paint0_linear)"/><path fill-rule="evenodd" clip-rule="evenodd" d="M53.8 46.3L61 27.1c.4-1-1.1-1.6-2-.8l-26 27c-.6.7 0 1.6 1 1.5l9.7-1-7 19.3c-.4 1 1 1.6 2 .8l25.9-27c.7-.7 0-1.7-1-1.6l-9.7 1z" fill="#fff"/><defs><linearGradient id="paint0_linear" x1="71.2" y1="89.3" x2="27.7" y2="4" gradientUnits="userSpaceOnUse"><stop stop-color="#6217C2"/><stop offset="1" stop-color="#B15AE8"/></linearGradient></defs></svg>