<svg width="100" height="100" fill="none" xmlns="http://www.w3.org/2000/svg"><rect x="3" y="3" width="93.9" height="93.9" rx="26" fill="url(#paint0_linear)"/><path fill-rule="evenodd" clip-rule="evenodd" d="M51.8 32c0-.7-.5-1.1-1-1l-4.5 1a1 1 0 00-.7 1v3.2c0 .6.5 1 1.1 1l4.4-1.2c.4 0 .7-.4.7-.8v-3.3zm-6.2 13.4v19.5c0 1.5-.7 2.3-2.1 2.3H42a1 1 0 00-1 .9v3.6c0 .6.5 1 1 1h2.5c2.4 0 4.2-.8 5.5-2.3a7 7 0 001.7-4.8V40.4c0-.5-.4-.9-.9-.9H36.7a1 1 0 01-.9-.9v-5.4c0-.5-.4-1-1-1h-4.3a1 1 0 00-.9 1v5.4c0 .5-.4 1-1 1H28a1 1 0 00-.9.8v2.9c0 .5.4.9 1 .9h.7c.5 0 .9.4.9 1v11.2a7 7 0 001.7 4.8 6.8 6.8 0 005.4 2.2h2.5c.5 0 .9-.4.9-.9V59c0-.5-.4-1-1-1H38c-1.4 0-2.1-.7-2.1-2.2V45.1c0-.5.4-.9 1-.9h8c.4 0 .8.4.8 1v.2zm25.8 11.2c-.4-.3-1-.3-1.3 0a5 5 0 01-3.3 1.3c-1.5 0-2.6-.5-3.5-1.6-1-1.1-1.4-2.3-1.4-4.8V50c.2-1.5.7-2.4 1.4-3.3.9-1.1 2-1.6 3.5-1.6a5 5 0 013.2 1.2c.4.4 1 .4 1.4 0l2.8-2.8c.4-.4.4-1 0-1.3-2-1.8-4.5-2.7-7.5-2.7s-5.4.9-7.3 2.6c-2.5 2.1-3.7 4.9-3.7 9.4s1.3 7.2 3.7 9.4c1.9 1.7 4.3 2.6 7.3 2.6s5.5-1.2 7.5-3.1c.4-.4.3-1 0-1.3l-2.8-2.5z" fill="url(#paint1_linear)"/><defs><linearGradient id="paint0_linear" x1="14.1" y1="-9.1" x2="88.9" y2="109.1" gradientUnits="userSpaceOnUse"><stop stop-color="#43B0C8"/><stop offset="1" stop-color="#3278BA"/></linearGradient><linearGradient id="paint1_linear" x1="36.8" y1="27.4" x2="59.2" y2="70.3" gradientUnits="userSpaceOnUse"><stop stop-color="#fff"/><stop offset="1" stop-color="#E3ECF0"/></linearGradient></defs></svg>