<svg width="601" height="601" xmlns="http://www.w3.org/2000/svg"><path d="M600 326.1v-1.2l-14.7 8.7a118.8 118.8 0 0 0-24.7 19c-5.5 6-12.4 10.1-22.4 14.2l-4.8 2-4.8 1.7a56 56 0 0 0-19 10.1 43.1 43.1 0 0 1-16.7 8.9l-6.5 1.8-6.1 1.5a37.3 37.3 0 0 0-10.6 3.8 49 49 0 0 1-12.7 5 384.1 384.1 0 0 1-10 2.9 110 110 0 0 0-11.2 4c-2.7 1.2-5.5 4-8.8 8.4-2.1 3-4.2 6.1-6.1 9.2a87 87 0 0 1-10.3 14.5 51 51 0 0 1-4.6 4.3c-2.3 1.9-10.4 7.5-11.8 8.7a14.7 14.7 0 0 0-3.6 4.2 30.1 30.1 0 0 0-2.8 8.8 53.2 53.2 0 0 1-8.2 22.1 78 78 0 0 1-11.4 14.5l-3.7 3.6c-1.7 1.6-3.2 3-4.9 4.9-4.5 4.8-8 10.6-9.9 16.9a67.4 67.4 0 0 0-1.7 27.2c.5 5.8.5 6.4.5 8.2a390.7 390.7 0 0 0 1.6 37h.9c-1.1-9.6-1.5-21.8-1.5-37 0-1.9 0-2.4-.5-8.3-1-11.6-.7-18.8 1.7-26.8a41.4 41.4 0 0 1 9.7-16.6l4.8-4.8 3.7-3.6a71.6 71.6 0 0 0 11.5-14.6 54 54 0 0 0 8.4-22.5c.8-4.2 1.5-6.4 2.6-8.6a14 14 0 0 1 3.5-3.8c1.4-1.2 9.4-6.8 11.8-8.8 1.7-1.4 3.2-2.8 4.7-4.3 2.7-2.8 4.5-5.5 10.3-14.6l6.1-9.2a24 24 0 0 1 8.4-8 110.9 110.9 0 0 1 18.7-6.3l2.4-.6c6.2-1.8 9.8-3.2 13-5.2 2.1-1.3 5-2.3 10.2-3.6l6.2-1.6 6.5-1.8a44 44 0 0 0 17.1-9c4-3.8 9-6.2 18.7-10l4.8-1.8 4.8-1.9a61 61 0 0 0 22.8-14.4c6-6.4 14-12.4 24.5-18.9 1.5-1 7.8-4.6 14.1-8.3v-64.6c-4 8.2-8.5 14.9-12.7 18a269.6 269.6 0 0 0-15.3 11.8l-1.2 1a270.1 270.1 0 0 1-22.5 17c-3.1 2.2-3.9 2.9-8 7.3-6 6-11.8 8.6-29.2 10.9-11.3 1.5-20 5-30.8 11l-7 4.2c-2.7 1.6-4.6 2.7-6.6 3.6a34.2 34.2 0 0 1-15.7 4.2 83.1 83.1 0 0 0-51.6 22.8c-12 13.4-31.4 27.7-45.3 31.2-7.4 1.8-11.8 7-14 14.7a46.8 46.8 0 0 0-1.4 17.4 37 37 0 0 1-.7 13.3 48.9 48.9 0 0 1-10.6 19.4C313.5 486 304.5 516 304.5 541v8.8c.2 10.8.2 15.8-.2 21.9a107 107 0 0 1-5 29.3h-1c3-8.6 4.5-18.1 5-29.4.3-6 .4-11 .3-21.9l-.1-8.7c0-25.3 9-55.5 23.1-72.3a48 48 0 0 0 10.4-19 36 36 0 0 0 .7-13 47.6 47.6 0 0 1 1.4-17.8c2.3-8 7-13.4 14.8-15.4 13.6-3.4 32.8-17.6 44.7-30.8a84 84 0 0 1 52.4-23.2c5 0 9.8-1.3 15.3-4 1.9-1 3.9-2.1 6.5-3.7l7-4.1a79.8 79.8 0 0 1 31.1-11.2c17.3-2.3 23-4.8 28.6-10.6 4.3-4.4 5-5.2 8.2-7.3a262.4 262.4 0 0 0 22.4-17l1.3-1a4668.4 4668.4 0 0 1 15.3-12 53.9 53.9 0 0 0 13.3-19.4v66.9zm0-116.2l-2 .1c-6 .6-13.8 3.4-21.8 7.4a32.6 32.6 0 0 1-14.2 2.8 84 84 0 0 1-19.4-2.3c-1.1-.3-2.3-.4-3.5-.6-5.5-.4-11.1-.7-16.7-.9-10.4-.1-17.2.8-18 2.8-.3 1 .7 2.5 3.1 4.9l4 3.5 4.8 4c1.4 1.2 3.1 2 5.5 2.5l2.7.6c3.5.7 5 1.2 6.1 2.6 1.4 1.8 1.4 4.5-.1 8.9-2.5 6.8-5.8 10-10.2 10.3-3.6.2-7.6-1.3-14.5-5-4.6-2.5-6.9-7.4-8.4-15.3l-.5-2.9-.4-2.7c-1-6.6-1.9-9.2-3.7-10.2l-2.4-1a22 22 0 0 0-8-.9l-13.8 1c-20.6 1.3-28.9 5-37.1 15a133 133 0 0 0-4.3 5.4l-2.3 3-2.5 3.4a59 59 0 0 1-12.5 12.7l-4.1 3-5.2 4c-4.5 3.7-9.7 8.6-16.2 15.4-8.3 8.5-11.8 13.5-11.7 15.9 0 1.6 1.6 2.1 6.8 2.4 1.6 0 2.1.1 3 .2 2.9.2 5 .7 6.7 1.7 7.5 4.1 11.7 7.2 14 11.5 3.3 6.2.8 13-8.9 20.3-8.3 6.3-11.1 10.4-11.3 15 0 1.1 0 1.9.3 4.4.6 6.5.2 10.6-2.9 17.4a44.2 44.2 0 0 1-4.1 7.5c-2.8 4-5.5 5.8-10.6 7.7l-4.3 1.6a62.3 62.3 0 0 0-18 10.4 43.7 43.7 0 0 0-16 25 125 125 0 0 0-2.9 15.3 53.5 53.5 0 0 1-4 16.5c-2.1 4.3-12 26.6-13 28.9-2 4.5-4.2 9-6.4 13.4a98 98 0 0 1-10.7 17.8c-5.4 6.5-9 14.4-13.8 28.4l-1.9 5.6-4.2 11.9c-6.2 15.3-25.5 26.3-46.5 26.3a60.5 60.5 0 0 1-31-8.5c-5.6-3.2-4.6-2.5-22.3-14.6-14.3-9.8-17.7-10.7-20.4-6.9l-1.9 2.8c-1.5 2-3.1 4-5 5.9l-6.9 7.4c-2.4 2.6-4.3 4.8-6 7-2 2.3-3.6 4.9-5 7.6a32.6 32.6 0 0 0-2.7 10.6l-.5 3.2h-1l.5-3.3c.8-5.5 1.4-8.2 2.8-11 1.4-2.7 3.2-5.3 5.2-7.8 1.6-2.1 3.6-4.3 6-7l7-7.4c1.7-1.8 3.3-3.7 4.8-5.8l1.8-2.8c3.3-4.5 7.1-3.4 21.9 6.7 17.6 12 16.6 11.4 22.2 14.5a59.5 59.5 0 0 0 30.5 8.4c20.7 0 39.6-10.8 45.5-25.7a219.7 219.7 0 0 0 6.2-17.4 85.9 85.9 0 0 1 14-28.7c3-3.7 6.5-9.6 10.5-17.6l6.4-13.4c1-2.3 10.8-24.6 13-29a53 53 0 0 0 4-16.2c1.2-8.4 1.6-11 2.8-15.3 2.8-10.7 7.7-19 16.3-25.6a73.2 73.2 0 0 1 18.4-10.5l4.2-1.6c5-1.9 7.5-3.6 10.2-7.3 1.3-2 2.7-4.3 4-7.4 3-6.6 3.4-10.6 2.8-17-.3-1.4-.3-3-.3-4.5.2-5 3.2-9.2 11.7-15.7 9.3-7.1 11.7-13.3 8.6-19-2.2-4-6.2-7.1-13.5-11.2-1.6-.8-3.6-1.3-6.5-1.5l-3-.2c-5.7-.3-7.5-.9-7.6-3.4-.1-2.8 3.5-7.8 12-16.7a191.6 191.6 0 0 1 21.5-19.4l4-3c.9-.6 1.6-1 2.2-1.6a58.7 58.7 0 0 0 12.7-14.2l2.3-3.1c1.8-2.4 3-4 4.3-5.5 8.5-10.2 17-14 37.3-15.3l14.3-1a23 23 0 0 1 11 2c2.2 1.2 3 4 4.2 10.9l.4 2.8.5 2.8c1.5 7.7 3.7 12.3 7.8 14.6 6.8 3.6 10.6 5.1 14 4.9 4-.3 7-3.2 9.3-9.7 1.5-4 1.5-6.5.3-7.9-.9-1.1-2.2-1.6-5.5-2.3l-2.7-.5c-2.5-.6-4.4-1.4-6-2.7l-4.7-4a84.4 84.4 0 0 1-4-3.6c-2.8-2.6-4-4.5-3.4-6 1-2.6 7.9-3.5 19-3.4a230.6 230.6 0 0 1 20.4 1.5l4.6 1c4.8.8 9.7 1.2 14.5 1.3 5.6 0 10.3-.9 13.8-2.6a69.7 69.7 0 0 1 24.2-7.7v1zm0-101v1.5c-8.6 16-17.3 29.6-23.6 36a21.6 21.6 0 0 1-13.6 5.5c-4.4.5-8.3.4-19.2-.2-9.9-.5-15.3-.4-20.5.8a84 84 0 0 1-15 2.1l-2.2.1c-12.5.8-19.4 1.8-32.8 5.8-4.5 1.3-9.2 2.5-14.3 3.5-10.7 2-21.6 3.3-32.6 4-7.5.4-13.2.5-20.2.5-5.4 0-11.9 1.6-18 5.2a46.5 46.5 0 0 0-19.5 24.5 68.6 68.6 0 0 1-4.6 9.8 27 27 0 0 1-13.4 12.2l-4 2a64.5 64.5 0 0 0-15.2 10.2c-8.2 7.3-13.7 16.6-22.5 35.6l-2 4.5a115.9 115.9 0 0 1-17.4 29.8c-7.7 8.7-20.3 14.4-40.3 20.1l-19.3 5.1a143 143 0 0 0-15.6 5c-10.6 4.2-18.7 10.5-36.4 26.5l-1.7 1.5a236.2 236.2 0 0 1-31.8 24.8l-12.3 8c-11.5 7.4-18.5 13-24.6 20a62 62 0 0 0-6.5 8.9c-4 6.9-6.2 13.1-9.2 25l-1.5 6.4-1.7 6.5a65.5 65.5 0 0 1-14.8 27l-4.1 4.9-4.2 5.3c-1.4 2-2.6 4-3.4 6.3a38.6 38.6 0 0 0-1.9 12c-.6 10-1.4 15-4.6 22.6L49 554c-1 2.5-2.3 5-3.6 7.4a86.2 86.2 0 0 1-13.1 17 43.3 43.3 0 0 0-12 20.8l-.5 1.8h-1l.5-2c.5-2.2 1-3.6 1.4-5 1.8-5.2 4.8-9.9 10.8-16.3a85.6 85.6 0 0 0 13-16.8c1.3-2.4 2.5-4.8 3.5-7.3l6.4-15.8c3.2-7.5 4-12.4 4.6-22.3a39 39 0 0 1 2-12.3c.8-2.3 2-4.5 3.5-6.5l4.2-5.3 4.1-5c7.8-9.4 11.7-16 14.6-26.5l1.7-6.6 1.6-6.3a84 84 0 0 1 9.3-25.3c1.8-3.1 4-6 6.5-9 6.2-7.1 13.3-12.7 24.9-20.3l12.3-8c5-3.1 9-6 13-8.8 5.3-4 10.1-8 18.6-15.8l1.8-1.6c17.7-16 26-22.4 36.6-26.7 4-1.6 8.8-3 15.8-5l19.2-5c19.9-5.7 32.3-11.4 39.8-19.8 5.8-6.5 10-14 17.2-29.7l2.1-4.5c8.9-19 14.5-28.4 22.8-35.9 4.6-4.1 9.8-7.7 15.4-10.4l4-2a26 26 0 0 0 13-11.7c1.7-3.1 3.2-6.3 4.4-9.7a47.5 47.5 0 0 1 20-25c6.3-3.6 13-5.3 18.5-5.3 7 0 12.7-.1 20.2-.6 10.9-.6 21.7-1.9 32.4-4 5-1 9.8-2 14.3-3.4 13.4-4 20.4-5 33-5.8l2.2-.1c5.7-.4 9.8-.9 14.8-2a77.9 77.9 0 0 1 22.6-.8c9 .5 12.8.6 17.2.1 5.7-.6 10-2.3 13-5.3 6.4-6.4 15.3-20.3 24.3-36.7zm0 450.2c-1.3-4.6-2.2-10.5-3.3-20.2l-.3-2-.2-2c-1.8-15.8-3-22-5.6-24.5-2.4-2.5-3-5-2.5-8.7l.4-2.1c.7-3.6.8-5 .1-6.9-1-2.4-3.3-4.4-7.8-6.2-5-2.1-6.5-4.9-4.9-8.5.7-1.4 1.8-3 3.5-5l5.1-5.5c6.2-6.7 9-11.4 9-16.5-.1-5.1 2.3-10 6.5-12.9v1.3a14.2 14.2 0 0 0-5.5 11.6c0 5.5-3 10.3-9.2 17.2.3-.5-4 4.3-5.1 5.5-1.7 1.9-2.8 3.4-3.4 4.7-1.3 3-.2 5.3 4.4 7.1 4.7 2 7.3 4.2 8.3 6.9.8 2 .7 3.6 0 7.4l-.4 2c-.5 3.4 0 5.6 2.3 7.8 2.7 2.8 4 9 5.8 25.1l.2 2 .3 2c.8 7 1.5 12.1 2.3 16.1v4.3zm0-62.1l-5-11.2c-1-2.5-1.2-3.8-.9-5.2a70.8 70.8 0 0 0 5.9-16.5v4c-.7 2.6-1.6 5.1-2.6 7.6-.3.7-2.1 4.4-2.3 5.2-.3 1 0 2.2.9 4.5l4 9.1v2.5zm0-85.1a20.4 20.4 0 0 1-6.4 4.1c-.3.1-14 5.5-20.4 8.4a44.6 44.6 0 0 1-23 5.3c-5.1-.5-9-2.3-14.8-6l-3.2-2a77.4 77.4 0 0 0-5.4-3.3c-4-2.1-3.3-5.8 1.4-10.4 3.7-3.7 9.6-8 18.8-13.8l4.4-2.8c18-11.4 18.2-11.5 22.3-14.8 11.2-9 19.7-14 26.3-15v1c-6.4 1-14.6 6-25.7 14.8-4 3.3-4.3 3.4-22.3 14.8l-4.5 2.8c-9 5.9-15 10-18.6 13.7-4.3 4.3-5 7.1-1.7 8.9 1.7.9 3.3 1.8 5.5 3.3l3.2 2c5.7 3.6 9.5 5.3 14.4 5.8 6.1.6 13.3-.9 22.5-5.1 6.5-3 20.2-8.4 20.4-8.5 3-1.4 5-2.7 6.8-4.7v1.5zm0-41.4v1c-6.6.3-12.1 3.1-19.7 9.1l-4.6 3.7a51.9 51.9 0 0 1-4.4 3.1l-6.3 3.8a251 251 0 0 0-17 11.5c-4.6 3.7-7.4 6.9-8 9.4-.6 2.6 1.5 4.5 7 5.4a50 50 0 0 0 30.5-4.6 62 62 0 0 0 17.1-12.2c2-2.3 3.9-4.8 5.4-7.5v2a39 39 0 0 1-4.6 6.2 63 63 0 0 1-17.4 12.4 51 51 0 0 1-31 4.7c-6.1-1-8.7-3.3-8-6.7.7-2.7 3.6-6 8.4-9.9 2.3-1.9 5-3.9 8.2-6l9-5.6 6.1-3.7c1.3-.8 2.6-1.8 4.3-3.1l4.7-3.7c7.7-6 13.5-9 20.3-9.3zm0-154.6v1c-1.8-.2-4.3.3-7.8 1.6a339 339 0 0 1-23 8c-1.5.5-3.2.7-6.8 1.1l-2.6.3c-7.8 1-11.3 2.5-11.3 6.1 0 4.4 2.9 13.2 8 25.8a57.3 57.3 0 0 1 3.1 11c1.9 7.7 3.2 10.8 5.6 11.7 2.2 1 4.7.6 7.5-.7 3.4-1.7 7.2-5 11.2-9.4l4.6-5.6 3.1-4.1c2.6-3.3 6-12.2 8.4-20.3v3.5a67 67 0 0 1-7.6 17.4l-3.2 4.1c-1.6 2.1-3 3.9-4.6 5.6a40 40 0 0 1-11.5 9.7c-3 1.5-5.8 1.8-8.3.8-2.8-1.2-4.2-4.4-6.1-12.4l-.9-3.5c-.8-3.2-1.4-5.4-2.3-7.4a93.4 93.4 0 0 1-8-26.2c0-4.4 3.8-6 12.2-7l2.6-.4a32.9 32.9 0 0 0 10.4-2.3c5.4-1.7 9.1-3 19.1-6.8 3.6-1.3 6.2-1.8 8.2-1.6zM0 293a124 124 0 0 0 23-35.4c3.4-8.1 6.2-16.1 10.9-30.5l1.6-4.9a317 317 0 0 1 14.7-39.5c6.1-12.8 12.6-21.2 20.3-25.6A24.9 24.9 0 0 0 82.7 144c.8-2.2 1.4-4.4 1.9-6.6 1.2-5.2 2-7.6 4-10.4 2.4-3.6 6.2-6.5 12-9 15.8-6.5 16.8-7 18-9 .7-1 .9-2 .8-4.5l-.2-4-.2-5.5c0-10 .2-11.4 2.4-13.2l2-1.3a68.4 68.4 0 0 0 12-7.3c2-1.5 2.6-2.1 8-8 3.8-4 6.2-6.3 9-8a13 13 0 0 1 10.9-2.2c4.4 1.2 10.8 2 18.8 2.5 6.8.4 12.8.5 21.9.5 4.9 0 9 .5 15.4 1.6 7.8 1.3 9.3 1.5 12.4 1.5 4 0 7.4-.9 10.7-3 5-3.2 8-4.6 11.2-5.1 3.6-.7 4.7-.5 16.5 2 17.3 3.7 30.9 1.4 41-9.7 5.2-5.5 5.6-8.9 3.6-14.8-.9-2.4-1-3-1.2-4.3-.3-2.5.5-4.7 2.7-7 2.6-2.6 4.7-9 6.2-18.2h2c-1.5 9.7-3.7 16.6-6.8 19.7-1.8 1.8-2.3 3.4-2.1 5.3 0 1 .3 1.6 1 3.9 2.3 6.5 1.8 10.6-3.9 16.8-10.7 11.6-25 14.1-43 10.3-11.3-2.5-12.5-2.6-15.7-2-2.8.4-5.6 1.8-10.5 4.8a21 21 0 0 1-11.7 3.3 66 66 0 0 1-12.8-1.6c-6.3-1-10.3-1.5-15-1.5-9.1 0-15.1-.1-22-.5-8.2-.5-14.7-1.3-19.3-2.5-5.6-1.6-10.1 1.3-17.8 9.6a54.5 54.5 0 0 1-17.7 14.2l-2.8 1.5-1.8 1.1c-1.4 1.2-1.6 2.4-1.6 11.6 0 1.8 0 3.5.2 5.4l.2 4c.1 2.8-.1 4.4-1 5.8-1.7 2.5-2.3 2.8-19 9.7-5.5 2.3-9 5-11.2 8.3a25.8 25.8 0 0 0-3.7 9.7c-.8 3.5-1.2 4.9-1.9 6.8-2.2 5.7-6 10.2-13.1 14.2-7.3 4-13.5 12.3-19.5 24.6a317 317 0 0 0-14.6 39.3l-1.6 4.9a467.1 467.1 0 0 1-10.9 30.7A128 128 0 0 1 0 296v-3zm0 78v-.5h1c6.3 0 7.5 5.2 4.6 13.4-1.5 3.9-3.3 7.7-5.6 11.3v-2c1.8-3 3.4-6.3 4.7-9.7 2.6-7.6 1.7-12-3.7-12H0V325a341 341 0 0 0 13.7-8.3C27.4 307 43.5 279 43.5 263c0-18.1 21.6-72.7 32.2-79.4 12.7-8.1 32.3-28 35.8-37.8 2-5.3 5.5-7.3 14.5-9.4 6.1-1.4 8.6-2.4 10.6-4.7 1.5-1.8 2.7-4.8 4.3-10.3l2.5-8.5c3.6-12 7.3-18.5 13.4-20.4 2.5-.8 3-1 9.8-3.7 7.5-3 12-4.4 17.1-5 6.8-.6 13.1.8 19.6 4.8a36.6 36.6 0 0 0 20.1 4.5c6-.1 12.2-1 19.9-2.8l8.2-2c2.7-.5 4.4-.8 5.5-.8a313.8 313.8 0 0 0 37-2.2c8.4-1.1 15.9-2.7 21.8-4.8 19-6.6 32.7-18.3 33.7-27.6.3-2.5.4-3 2.8-11a47 47 0 0 0 2.7-18.3c-.2-2.3-.7-4.4-1.5-6.4-1.5-4-2.6-9.4-3.4-16.2h.9c.8 6.5 1.9 11.7 3.5 15.8a25 25 0 0 1 1.5 6.7c.5 5.5-.4 10.5-2.8 18.6-2.3 8-2.4 8.5-2.7 11-1 9.7-15.1 21.6-34.3 28.4-6 2-13.6 3.7-22.1 4.8a251.8 251.8 0 0 1-37.1 2.2c-1 0-2.6.3-5.3.9l-8.2 1.9a99 99 0 0 1-20 2.8c-8.2.2-15.2-1.3-20.8-4.7a29.7 29.7 0 0 0-18.9-4.5c-5 .5-9.4 1.8-16.8 4.8-6.8 2.8-7.3 3-9.8 3.8-5.8 1.7-9.3 8-12.9 19.7l-2.4 8.5a30 30 0 0 1-4.5 10.6c-2.2 2.6-4.9 3.6-12 5.3-7.8 1.8-11.2 3.7-13 8.6-3.6 10-23.3 30-36.1 38.2-10.4 6.6-31.8 60.8-31.8 78.6 0 16.3-16.3 44.8-30.2 54.4C12 319 6 322.5 0 326.1v-1.2V371zm0-173.7v-1.1a73.6 73.6 0 0 0 21.8-19c3.8-4.5 14.2-18.8 15.8-20.5 1.8-2 4-4 7.4-6.5l5.5-4c9.4-6.8 14-12 16-19.3.8-3 1.6-6.8 2.5-12.3l2.5-15.8c3-16.8 5.8-26.8 10.1-32.1C92.5 53.4 101.5 39 101.5 34c0-2.5.3-3.4 6-15.7a272 272 0 0 0 1.8-4c2.5-5.7 4-10 4.2-13.3h1c-.3 3.5-1.7 7.9-4.3 13.8l-1.8 4c-5.5 12-5.9 12.9-5.9 15.2 0 5.5-9 19.8-20.1 33.3-4.2 5.1-7 15-9.9 31.7L70 114.7c-1 5.6-1.7 9.4-2.5 12.4-2 7.7-6.8 13-16.4 20l-5.5 4a47.2 47.2 0 0 0-7.2 6.2c-1.6 1.8-12 16-15.8 20.6A73.6 73.6 0 0 1 0 197.3zm0 361.8v-4.3c.5 2.4 1 4.4 1.6 6.2 2 6 4.6 8.2 8.2 6.5 19-8.8 33.7-24.1 33.7-39.5a77.7 77.7 0 0 1 22.6-52.3l2.3-1.8 2-1.4c3.7-2.7 5.3-5.3 7.1-12.6.8-3 1.4-5 4.2-13.3l.6-1.9c3.3-9.5 4.6-15 4.2-18.6-.5-4.4-3.8-5.2-11.3-1.7-3 1.5-6 2.7-9.1 3.8-14 4.6-27 5.8-42.7 5.4h-2l-1.4-.1c-5.2 0-10.3 1-15 3-1.8.7-3.5 1.7-5 2.9V438c1.4-1 3-1.9 4.5-2.6a40.8 40.8 0 0 1 17-3h2c15.5.4 28.5-.7 42.2-5.3 3.1-1 6.1-2.3 9-3.6 8.1-3.9 12.2-2.9 12.8 2.4a51 51 0 0 1-4.2 19l-.6 2c-2.9 8.1-3.5 10-4.2 13.1-1.8 7.5-3.6 10.4-7.5 13.2l-2 1.4a34 34 0 0 0-7.6 7.6A76.7 76.7 0 0 0 44.5 528c0 15.9-15 31.5-34.3 40.5-4.3 2-7.4-.7-9.5-7.2L0 559zM0 497v-2.5l1.5 3.3a60.1 60.1 0 0 1 4.2 16.8c.7 5.3.9 9.3 1 18.5.3 9.3.6 12.7 1.7 15 1.3 2.6 3.7 2.4 8.3-1.5 17.1-14.3 21.8-22.9 21.8-38.6 0-7.2 1.1-12.4 3.7-17.7a112 112 0 0 1 13.4-19.6 69.8 69.8 0 0 1 12-12.6c1.1-1 2-2 2.7-3.3.9-2 1.6-4 2.2-6l.4-1.2.3-1.1a95.9 95.9 0 0 0 1.6-5.8c.4-2.2.1-3.5-.8-4.2-2.4-1.6-9.3-.2-23.8 5a74 74 0 0 1-27.9 4.2c-7.7 0-10.4.4-13.2 2.1-3.5 2.2-5.9 6.4-7.6 14.3l-1.5 6v-4l.5-2.2c1.8-8.1 4.3-12.6 8-15 3-1.8 6-2.1 13.8-2.2a73 73 0 0 0 27.5-4.2c15-5.3 22-6.7 24.7-4.8 1.4 1 1.7 2.6 1.3 5.1-.2 1.3-.5 2.6-1 3.8l-.6 2.2-.4 1.1-.3 1.2c-.6 2.1-1.4 4.2-2.3 6.1-.9 1.6-1.7 2.6-3 3.7l-.8.7-1 .8-2.5 2.2a68.8 68.8 0 0 0-7.5 8.7c-9.7 13-11 14.9-13.3 19.4a36.7 36.7 0 0 0-3.6 17.3c0 16-4.8 24.9-22.2 39.4-5 4.2-8.2 4.5-9.8 1.1-1.2-2.5-1.5-5.9-1.7-15.4-.2-9.2-.4-13.2-1-18.4a58.7 58.7 0 0 0-4.3-16.5L0 497zM379.3 1h1l1.5 5.3c3.3 11.5 4.9 19.3 5.3 27.8.5 11-1.6 21.2-6.7 31.1a77.5 77.5 0 0 1-36.2 34.1 89.7 89.7 0 0 1-36.2 9.2 274 274 0 0 0-37.3 4.6l-2.2.4c-24.5 4-31.7 5-37.5 5-3.5 0-4 0-19.5-2.8l-9-1.5c-20.3-3-31-1.2-32 7.8l-.3 2.9-.3 2.7a51.7 51.7 0 0 1-4.3 20c-2.9 5.3-7.7 7.9-15.6 7.9-10.2 0-13 .6-15.5 3.2.5-.5-5 5.8-8.2 8.7l-15.7 13.8-6.6 6a83.8 83.8 0 0 0-26.3 40.2c-1.6 8.3 3.7 9.5 19 1.2a626.2 626.2 0 0 1 44.6-22l15.7-6.9c5-2.2 8.3-3.8 10.8-5.1l2-1.1 2-1.2 5-2.5c18.2-8.8 34.6-10.5 50.4-1.2 23 13.3 38.3 37 38.3 56.4 0 19.1-.7 25.1-5.2 33.2-1.4 2.5-3 5-5 7.1a60.5 60.5 0 0 0-12.7 21.3c-1.2 6.3 4.7 7 20.2 0 13.3-6.1 22.4-15 28.5-26.4 2.5-4.8 4.6-9.9 6-15.1 1-3 3.3-11.7 3.5-12.5a29 29 0 0 1 1.8-4.8c7.4-15 21-30.5 36.2-37.3 7.6-3.3 13-9.6 19.4-20.8l5.1-9.1c3.6-6.1 6.3-9.7 9.4-12 10.2-7.4 28.7-11.1 50.3-11.1 7.5 0 16.5-1.2 27.5-3.6 5-1 10-2.2 15-3.5l19.4-4.9c14.1-3.3 41-5 64.1-5 17.4 0 27.8-9.2 38.5-38.7 6.6-18.2 6.6-26.3 2.7-34.3L589 65c-1-1.9-1.5-4-1.5-6.1 0-4 0-4 2.5-24.6l1.1-9.6c1-8.4 1.4-15.2 1.4-20.8V1h1v3c0 5.7-.5 12.4-1.4 20.9l-1.1 9.7C588.5 55 588.5 55 588.5 59c0 2 .5 3.6 1.5 5.7L591 67c4 8.3 4 16.7-2.6 35.2-10.9 29.8-21.7 39.3-39.5 39.3-23 0-49.8 1.7-63.9 5l-19.4 4.9-15 3.5c-11 2.3-20 3.6-27.7 3.6-21.4 0-39.8 3.7-49.7 10.9-3 2.2-5.6 5.7-9.1 11.7l-5.1 9.2c-6.5 11.3-12 17.7-19.9 21.1a81.4 81.4 0 0 0-35.8 36.8c-.6 1.5-1.2 3-1.6 4.7l-3.4 12.5a81.5 81.5 0 0 1-6.2 15.3 59.7 59.7 0 0 1-29 26.8c-16 7.3-23 6.5-21.6-1a61 61 0 0 1 13-21.8c1.8-2.2 3.5-4.5 4.8-7 4.4-7.9 5.1-13.8 5.1-32.7 0-19-15.2-42.4-37.7-55.6-15.6-9-31.6-7.3-49.5 1.3-2.4 1.1-4.8 2.4-7.1 3.7l-2 1c-3.5 2-7.1 3.6-10.8 5.2l-15.7 7c-15.1 6.7-30 14-44.5 21.8-16 8.7-22.3 7.2-20.4-2.3a84.1 84.1 0 0 1 26.5-40.7l6.6-6 15.8-13.8c3-2.8 8.6-9.1 8.1-8.6 2.8-2.9 5.8-3.5 16.2-3.5 7.5 0 12-2.4 14.8-7.4 2.1-4 3-8.9 4.1-19.6l.3-2.7.3-2.8c.6-5.5 4.5-8.5 11.2-9.7 5.5-.8 12.6-.5 21.9 1 2.7.3 5.5.8 9 1.4 15.4 2.7 16 2.8 19.4 2.8 5.7 0 12.9-1 37.3-5l2.3-.4c20-3.2 30.5-4.6 37.4-4.6 10 0 23.5-3.2 35.8-9a76.5 76.5 0 0 0 35.8-33.7c5-9.8 7-19.8 6.5-30.7-.4-8.4-2-16-5.3-27.6L379.3 1zm13.6 0h1l3.6 14.9c3.6 14 3 27-.8 38.8a61 61 0 0 1-11.3 20.6A138.4 138.4 0 0 1 366 94.1a91.2 91.2 0 0 1-36 18.4 258.6 258.6 0 0 1-32.9 5.4L288 119a78.2 78.2 0 0 0-21.7 4.5c-9.3 4.2-28.3 6-49.2 6l-4.3-.3c-2.6-.5-5-1-9.1-2.3a34.7 34.7 0 0 0-12.7-2.6c-3.9.2-6.6 2.3-8.4 6.9a51 51 0 0 0-3.4 15c-1 9-2.8 12-10 14.3a40.1 40.1 0 0 0-8.5 3.7l-1.3.8c-2 1.2-4 1.5-9.3 1.5-3.2 0-8.8-.6-9.5-.4-1.2.3-.8-.1-7.2 6.3a67.2 67.2 0 0 1-6.3 5.3c-1.5 1.2-7.1 5.5-8 6-4.9 3.8-8.2 6.7-11 9.4-4.8 5-6.8 9.2-5.5 12.7 1.3 3.7 4 4.4 8.9 2.8 2.6-1 5.2-2 7.7-3.4l9.4-5c4-2.1 8.1-4 12.3-5.7 3.8-1.4 7.4-3 11-4.8l13-6.2 11.7-5.3c17.2-7.3 29.3-10 37.7-6.7l5.4 2.1a258.7 258.7 0 0 1 19.1 8.4c18.3 9.6 30.4 22.1 34.8 39.9 7 27.8 3.6 45.5-8 62.4-4 5.7-3.6 9.2 0 9 4.1-.3 10.2-5 15-12.6a73 73 0 0 0 8.1-21.5l1.7-6.3 1.8-6.6c5-16.5 11-27.2 21.6-34.7 7.2-5 23.7-15.5 25.5-16.8a39 39 0 0 0 14.3-18c7.8-17.4 21.1-24.3 44.5-24.3 9.4 0 18-1.1 29.5-3.5a624.9 624.9 0 0 0 11.9-2.4c4-.7 7-1.1 9.6-1.1 4.4 0 9.4-1 31.4-6l3-.7c16.3-3.6 25.6-5.3 31.6-5.3l6.4.1c7.8.2 12.3.1 17.3-.2 16.4-1 26.8-5.4 29.8-14.6 1-3 2.2-6 3.6-8.8l2.9-6.4c5.4-12.3 5.5-21.9-1.5-39.4a86.4 86.4 0 0 1-5.2-20.7c-1.6-12-1.4-23.2 0-40.4l.3-2.1h1l-.2 2.2a174.7 174.7 0 0 0-.1 40.1c.8 7 2.6 14 5.2 20.5 7 17.8 6.9 27.7 1.4 40.2-.6 1.5-3 6.8-3 6.4a86.2 86.2 0 0 0-3.4 8.8c-3.3 9.7-14 14.1-30.7 15.2a195.2 195.2 0 0 1-23.8.1c-6 0-15.2 1.7-31.4 5.3l-3 .7c-22.2 5-27 6-31.6 6-2.5 0-5.4.4-9.4 1a273.3 273.3 0 0 0-11.9 2.5 142.8 142.8 0 0 1-29.7 3.5c-23 0-36 6.7-43.5 23.7a40 40 0 0 1-14.7 18.5c-1.8 1.2-18.4 11.7-25.5 16.7-10.4 7.3-16.3 17.9-21.2 34.2l-1.8 6.5-1.7 6.4c-3 11.1-5 16.9-8.2 21.8-5 7.8-11.3 12.6-15.9 13-4.7.3-5.3-4.3-1-10.6 11.6-16.6 15-34 8-61.6-4.3-17.4-16.1-29.7-34.3-39.2a152 152 0 0 0-19-8.3l-5.4-2.1c-8-3.2-20-.6-36.9 6.6l-11.6 5.3-13 6.2c-4.7 2.2-8.2 3.7-11.1 4.9-4.2 1.6-8.3 3.5-12.2 5.6l-9.4 5a56.5 56.5 0 0 1-7.9 3.5c-5.3 1.8-8.6.8-10.2-3.4-1.4-4 .7-8.5 5.8-13.8 2.8-2.8 6.2-5.6 11.2-9.5l8-6a67 67 0 0 0 6.2-5.3c6.7-6.7 6-6.1 7.6-6.5.8-.2 6.6.4 9.7.4 5.2 0 7-.3 8.7-1.3l1.4-.9 1.8-1a41 41 0 0 1 7-2.8c6.6-2 8.2-4.8 9.2-13.4a52 52 0 0 1 3.4-15.3c2-5 5-7.3 9.4-7.5 3.1-.2 5.5.4 13 2.6a63.5 63.5 0 0 0 13.1 2.6c20.7 0 39.7-1.8 48.8-6 4.3-2 10.3-3 22-4.5l9.3-1.1 10.3-1.3c8.2-1.2 15.4-2.5 22.5-4a90.3 90.3 0 0 0 35.5-18.3c7-5.6 13.4-11.8 19.2-18.6a60 60 0 0 0 11.2-20.4 67.4 67.4 0 0 0 .7-38.2c-1.3-5-2.5-10-3.6-15.1zm113.8 0h1.3a58.4 58.4 0 0 1-11 11 10 10 0 0 1-5 1.5c-2.4 0-4.2.7-6.7 2.2l-2.7 1.7c-4.3 2.8-8 4.1-13.6 4.1s-10-1.3-16-4l-2.4-1.1-2.2-1a26 26 0 0 0-4.1-1.5c-1.1-.2-2.2-.4-3.3-.4-2.3 0-4.3-.7-11-3.4l-1.6-.6c-5-2-8-2.8-10.5-2.7-3 .3-4.4 2-4.4 6.2 0 20.8-5.2 50.4-12.1 57.3a404.8 404.8 0 0 1-34.1 29.1 224 224 0 0 1-44.1 25 106.9 106.9 0 0 1-24.6 6.3l-11.5 2a381 381 0 0 0-14 2.8c-20.6 4.5-25 5-38.1 5-2.5 0-2.9 0-14-2l-6.2-1a44 44 0 0 0-17.6-.2c-4.6 1.4-6 4.6-3.7 10.5 2 5.3 4.8 8.6 8.8 10.8 3.3 1.7 6.8 2.6 13.8 3.7 9.4 1.4 11 1.7 15.5 2.9a78.2 78.2 0 0 1 18.6 7.4 52.3 52.3 0 0 1 20 20.8c2.8 4.8 9.5 19.4 10.6 21.2 3.4 5.9 6.2 6.7 10.8 2a81 81 0 0 1 21.2-14l2.1-1.1c8-4.3 12-6.6 15.9-9.6 5-3.9 8.6-8 10.7-13 8.6-20.3 20.8-33.4 32.5-33.4h5.5c10.5.1 17.4 0 24.9-.3 13.7-.6 23.8-2 29.4-4.6a232 232 0 0 1 24.2-9 1428.3 1428.3 0 0 1 27.8-9 1059.4 1059.4 0 0 1 19.4-6.6 59.9 59.9 0 0 0 12.5-6.4c3.5-2.3 6.2-3.1 12-4.1l1.2-.2c5.7-1 9-2.3 12.8-5.7 7.8-7 8.5-23.1 3.8-44.5-1.7-7.7-2-19.3-1.6-35.5l.9-18.6h1l-.2 3-.7 15.7c-.5 16 0 27.6 1.6 35.2 4.8 21.7 4 38.2-4.2 45.5-3.9 3.4-7.3 4.8-13.2 5.8l-1.2.2c-5.7 1-8.3 1.8-11.6 4a63.7 63.7 0 0 1-20.8 9.4 5398 5398 0 0 1-39.2 12.7 232.7 232.7 0 0 0-24 9c-5.9 2.6-16 4-29.9 4.7-7.5.4-14.4.4-25 .3H374c-11.2 0-23.2 12.8-31.5 32.7a33.2 33.2 0 0 1-11.1 13.5c-4 3-8 5.4-16 9.6l-2.1 1.2a80 80 0 0 0-21 13.9c-5 5.1-8.7 4.1-12.4-2.3-1.1-1.9-7.8-16.5-10.5-21.2a51.5 51.5 0 0 0-19.6-20.5c-5.8-3.2-12-5.6-18.4-7.2-4.5-1.2-6-1.5-15.4-3-7.2-1-10.8-2-14.2-3.8a19.8 19.8 0 0 1-9.3-11.2c-2.4-6.4-.8-10.3 4.4-11.8 4-1.3 9.8-1.1 18 .1l6.2 1c11 2 11.5 2 13.9 2 13 0 17.3-.5 37.9-5a382.7 382.7 0 0 1 25.5-4.7c4.7-.9 8-1.5 11.2-2.3 4.6-1 8.8-2.3 13.2-4a222.8 222.8 0 0 0 44-25c7.4-5.2 26.3-21.3 33.8-28.8 6.7-6.7 11.9-36.2 11.9-56.7 0-4.6 1.9-6.9 5.4-7.2a27 27 0 0 1 11 2.8l1.5.6a31 31 0 0 0 10.6 3.3c1.1 0 2.3.2 3.5.5a91 91 0 0 1 7.7 3l1.1.6a35 35 0 0 0 15.7 3.9c5.4 0 8.9-1.2 13.1-4 .2 0 2.1-1.3 2.7-1.6 2.6-1.7 4.6-2.4 7.2-2.4a9 9 0 0 0 4.5-1.3c2.8-1.6 5.6-4.4 9.5-9.3l.7-.9zM324.5 601h-2a171.2 171.2 0 0 0 2.3-21.9 38.2 38.2 0 0 0-1.7-13.8 109 109 0 0 1-1.2-33.8c.8-6.2 2.6-12.2 5.2-18a70.8 70.8 0 0 1 12.6-18.1c3.4-3.6 5.5-5.5 11.8-10.8 4.5-3.8 6.4-5.6 7.6-7.5.6-1.1.9-2.1.9-3.1 0-1.8 0-1.7-.8-9.2l-.6-9c-.5-12 1.6-19.6 8-21.8 16-5.3 26-12 33.5-25.5C409.6 391.6 426 377 436 377c12.4 0 20-2 29.4-8.8 6.8-5 9.5-6.6 12.5-7.5 2.2-.6 3.8-.7 9.1-.7 1.9 0 3.5-.8 5.6-2.6l5.6-5.6c6-5.9 12-8.8 20.8-8.8l7.3.1c7.5.3 8.9.2 11.3-.7 3-1 5.5-3 14.7-11.1 8-7.1 10.8-9 23-16.5a69.5 69.5 0 0 0 13.1-9.9c4-3.9 8-7.8 11.6-11.9v3c-3.3 3.6-6.7 7-10.3 10.4a71.3 71.3 0 0 1-13.4 10c-12 7.6-14.8 9.4-22.6 16.4-9.5 8.3-12 10.3-15.4 11.5-2.8 1-4.2 1-12 .8l-7.3-.1c-8.3 0-13.8 2.7-19.4 8.2l-5.7 5.7c-2.4 2-4.5 3.1-6.9 3.1-5.1 0-6.6.1-8.6.7-2.6.7-5.3 2.3-11.8 7.1A45.7 45.7 0 0 1 436 379c-9.2 0-25 14.2-34.1 30.5-7.9 14-18.3 21-34.6 26.4-5.3 1.8-7.2 8.6-6.7 19.8 0 2.6.3 5.2.6 8.9.8 7.6.8 7.5.8 9.4 0 1.4-.4 2.7-1.2 4-1.4 2.3-3.3 4.2-8 8-6.2 5.3-8.3 7.2-11.7 10.7-5 5.2-9 11.2-12.2 17.7a58.8 58.8 0 0 0-5 17.4 106.8 106.8 0 0 0 2.5 39.6c.1.6.3 1.2.6 4a249.3 249.3 0 0 1-2.5 25.6zm-13.4 0h-1l.1-.3c3-7.1 4.3-11.8 4.3-18.7 0-3.6 0-5-.8-15.6-.7-12-1-19.7-.5-28.4a117.6 117.6 0 0 1 10.4-43.2 76.4 76.4 0 0 1 14.7-21.2l3.7-3.4c5.7-5.6 7.5-11.5 7.5-29.2 0-18.8 2.9-23.8 15.8-28.2a122 122 0 0 0 8.9-3.7c5-2.6 9.6-6.2 14.4-11.4 25.5-27.7 37.2-35.2 56.4-35.2 8.3 0 14.5-2 22-6.3 1.8-1 13.8-8.8 18.2-11.3a60.4 60.4 0 0 1 35.2-9.2 50 50 0 0 0 14.3-1.5c4.5-1.4 8-4 10.9-8.5 2.2-3.4 6.8-7 14.6-12l5.7-3.5a173 173 0 0 0 14.8-9.6c5.3-4 9.3-8.4 13.7-14.8 2-2.8 3.8-5.8 5.6-8.7v1.9l-4.8 7.4a59 59 0 0 1-13.9 15c-3.3 2.5-5.3 3.8-14.9 9.6a375 375 0 0 0-5.6 3.5 48.8 48.8 0 0 0-14.4 11.8c-3 4.6-6.7 7.4-11.5 8.8a51.2 51.2 0 0 1-14.5 1.6 59.5 59.5 0 0 0-34.8 9.1c-4.3 2.4-16.3 10.2-18.1 11.3-7.6 4.4-14 6.4-22.5 6.4-18.9 0-30.3 7.4-55.6 34.8a54.5 54.5 0 0 1-26.3 16.3c-5.1 1.7-7.5 3.2-9.3 6.3-2.2 3.8-3.3 10-3.3 20.1 0 17.9-1.9 24-7.8 29.9l-3.7 3.5a75.4 75.4 0 0 0-14.6 20.9 116.8 116.8 0 0 0-10.3 42.9c-.4 8.5-.1 16 .6 28 .7 10.8.8 12.2.8 15.8 0 6.4-1 10.9-4.4 19zm25.1 0h-1c0-4.7 0-9.4.3-15a111 111 0 0 0-2.5-24.4l-.3-1.9a92 92 0 0 1-2-26.4c1-9.3 4.7-16.7 12-22.7 22-18.2 29.8-30.2 29.8-44.6 0-2.6-.3-4.8-1-8.2-1-4.8-1-5.7-1-7.5a9.6 9.6 0 0 1 3.6-6.8c2.7-2.3 7-4.6 13.7-7 9.8-3.5 15.6-9.1 24.3-21.5l1.8-2.5c4.5-6.4 7.1-9.7 10.4-12.8 4.3-4 9-6.8 14.6-8.2 13.3-3.3 20.4-5.5 25.3-7.6a49.5 49.5 0 0 0 9.5-5.3c2.7-1.7 5.3-2.1 11.4-2.3 5.5-.2 8-.4 11-1.4 3.7-1.2 7-3.3 9.5-6.2a28 28 0 0 1 17.8-9l3.9-.5c6.9-1 10-1.7 13.5-3.6 4.5-2.5 6.8-4.5 23.4-19.7l3.2-2.9c9.6-8.7 16-13.8 21.4-16.4 4.2-2.2 7.6-4.7 11.2-8.7v1.5c-3.4 3.6-6.7 6-10.8 8-5.2 2.6-11.6 7.7-21.2 16.4l-3.1 2.8c-16.8 15.4-19 17.3-23.7 19.8-3.6 2-6.8 2.8-13.8 3.8l-3.8.5a27 27 0 0 0-17.2 8.6c-2.7 3-6.2 5.3-10 6.5a38 38 0 0 1-11.3 1.5c-6 .2-8.3.6-10.8 2.1a144 144 0 0 1-9.7 5.4c-5 2.2-12.1 4.3-25.5 7.7-9.7 2.4-15.2 7.6-24.4 20.5l-1.8 2.5c-8.8 12.6-14.8 18.4-24.7 22a42.6 42.6 0 0 0-13.4 6.8 8.5 8.5 0 0 0-3.3 6c0 1.8 0 2.7 1 7.3a39 39 0 0 1 1 8.4c0 14.8-8 27-30.2 45.4-7 5.8-10.6 13-11.6 22-.8 7-.2 13.7 2 26.2l.3 1.8c2.1 12.7 2.8 18.1 2.5 24.6l-.3 15zM96 601h-2a153.9 153.9 0 0 0 2-21.6c1.3-17.5 4-27.1 11.5-33.2 4.6-3.8 7.2-8.9 8.6-16a97 97 0 0 0 1.4-9.2 33 33 0 0 1 2.2-10.3c1.5-3.1 3.8-4.7 7.4-4.7 14.3 0 38.5 9.1 53.6 20.2 8.7 6.3 21.3 13.3 31.7 17.1 13 4.7 22 4.4 24.8-1.7l2.6-5.8c3-6.7 4.7-12.2 5.3-17.5.2-2.2.2-4.2 0-6.2-.3-2.7-1.4-4.5-4-7.3l-1.4-1.4a30.6 30.6 0 0 1-5-6.9l-1-2.1c-1.7-3.1-2.7-4.6-4.2-5.6-5.2-3.5-14.8-5.5-28.5-6.8l-9-.7-2.2-.2a65.4 65.4 0 0 1-19-3.2c-14.1-5.8-34.7-26.4-34.7-36.9 0-5.3 1.7-9.5 5.5-14.1 2-2.5 11-11.7 12.8-13.6 4.5-5 10.1-9.5 17.6-14.6 2.8-2 14.8-9.6 17.5-11.5 2.3-1.7 4.4-3.5 6.4-5.4 1.5-1.6 7-7.2 7-7.4a56.5 56.5 0 0 1 19.8-14.3c3.4-1.4 8.2-2.8 17.5-5.4a9576.4 9576.4 0 0 1 24.4-7c20.4-6.2 34-12 40.8-18.4a51.2 51.2 0 0 0 15.8-26c2-6.3 3-9 5-12.8 9.6-17.7 28.7-39.3 43.5-45.4 14.2-5.8 19.4-11.8 19.4-18.1 0-2.9 2.7-8.4 6.8-13.7a47.2 47.2 0 0 1 16.8-14.2A133 133 0 0 1 460 189c5.3 0 9.8-1.5 16.4-4.9 9.2-4.7 10.1-5.1 13.6-5.1 10.4 0 32-2.6 45.8-6l3.8-1 3.5-.8 6-1.5a32 32 0 0 1 18.3.3c4.5 1.4 13.6-.9 22.8-5.6a68 68 0 0 0 9.8-6.2v2.4c-11 8.1-25.8 13.6-33.3 11.4a29.7 29.7 0 0 0-17.2-.3 238 238 0 0 0-9.4 2.3l-3.9 1c-13.8 3.4-35.6 6-46.2 6-3 0-4 .4-12.7 4.9A36 36 0 0 1 460 191c-13.6 0-34.4 4.3-46.6 9.9a45.2 45.2 0 0 0-16 13.6c-3.8 5-6.4 10.2-6.4 12.5 0 7.3-5.8 13.8-20.6 20-14.3 5.8-33.2 27.1-42.5 44.5-2 3.5-3 6.3-5 12.4a53 53 0 0 1-16.2 26.8c-7.1 6.7-20.9 12.6-41.6 19a604.5 604.5 0 0 1-24.5 7c-9.2 2.5-14 4-17.2 5.2-6.8 2.7-12 6.8-19 14l-7.2 7.3c-2 2-4.3 4-6.6 5.6-2.8 2-14.8 9.6-17.5 11.5-7.4 5-13 9.5-17.4 14.4-1.7 1.9-10.8 11-12.7 13.4-3.4 4.3-5 8-5 12.9 0 9.5 20 29.5 33.4 35 3.7 1.6 9 2.4 18.4 3.1a586.2 586.2 0 0 0 11.3.9c14 1.4 23.8 3.4 29.5 7.2 1.8 1.2 3 2.9 4.8 6.3l1 2a28.5 28.5 0 0 0 4.7 6.5l1.3 1.4c3 3 4.2 5.2 4.6 8.5.2 2.1.2 4.3 0 6.6a61.1 61.1 0 0 1-5.4 18.1l-2.7 5.8c-3.5 7.5-13.3 7.8-27.2 2.8-10.7-3.9-23.5-11-32.3-17.4C164.6 517 140.8 508 127 508c-5 0-6.4 3-7.6 13.3a99 99 0 0 1-1.4 9.3c-1.5 7.5-4.3 13-9.4 17.2-6.8 5.6-9.5 14.8-10.7 31.8l-.4 5.5c-.5 7-1 12-1.6 15.9zm8 0h-1l1-4.6 1-5.6c2.5-13.3 4.2-20 6.7-24 1.7-2.9 3.6-5.6 8-11 8.2-10.4 10.9-14.6 10.9-18.8v-1.7-3.8c.2-5 1.5-8.2 4.6-9.4 4-1.5 10.4.5 20.2 6.5 9.5 5.9 17.5 10.7 25.9 15.6l17.6 10.5 6.4 3.9c13.9 8.5 39 5 46.4-7.9a88 88 0 0 0 9-20.3c1-2.7 2.4-5.3 4-7.7 9.3-14 14.9-26 14.9-36.7 0-3.7.7-6.6 3.4-14.9l1.1-3.7c3.6-12.2 3-19.1-4.3-24-3-2-6.4-3.3-10-3.8-7.2-.9-14.5 1.2-23.9 6l-7.6 3.8c-1.4.8-2.8 1.5-4.1 2.4l-4.4 2.6c-11.6 7-20.4 9.2-32.8 6-3.3-.8-6.3-1.3-13.1-2.5-13.3-2.4-18.7-3.8-23.4-6.5-6.2-3.7-7.4-9-2.8-16.7 4-6.6 8.8-12.8 14.4-18.3a157 157 0 0 1 8.3-7.6l7.8-6.8c2.3-2 4.5-4.1 6.5-6.3 7.7-8.5 12.8-13.4 20.1-18.6a97.5 97.5 0 0 1 35.2-15.6c37-8.6 51-12.7 58.8-18 8.6-5.6 21.3-24.7 36.9-54.7a81.4 81.4 0 0 1 21.1-25.7c5.1-4.3 9.6-7.3 17.6-12.3 7.4-4.6 9.6-6.1 11.3-8.1 1.2-1.5 2.2-3.2 3-4.9l3-6.8c1.3-3 2.5-5.4 4-7.7 6.5-11 16-18 31.3-20.8 12.8-2.3 19.9-2.7 29.7-2.3 3.3.1 4.1.2 5.6.1 5.2 0 9.7-1 16.6-3.8a152 152 0 0 1 69.7-11.5l2 .1c12.5 1 18.2 1 25.4-.6 5-1 9.7-3 14.1-5.4v1.1c-4.3 2.4-9 4.2-13.9 5.3-7.4 1.6-13 1.6-25.6.6l-2-.1c-4.5-.3-7.5-.5-10.5-.5-20.3 0-38.2 3.7-58.8 12a44.6 44.6 0 0 1-22.6 3.7c-9.8-.4-16.8 0-29.5 2.3a41.5 41.5 0 0 0-30.7 20.3c-1.5 2.5-2.8 5-4 7.6 0 .3-2.3 5.5-3 6.8a22 22 0 0 1-3 5.1c-1.9 2.2-4 3.7-11.6 8.4-8 5-12.4 8-17.5 12.1a80.6 80.6 0 0 0-20.9 25.4c-15.6 30.2-28.3 49.4-37.1 55.2-8 5.3-22 9.4-59.2 18a96.3 96.3 0 0 0-34.8 15.5c-7.2 5.2-12.3 10-20 18.4a86 86 0 0 1-6.5 6.4l-7.8 6.8-8.3 7.6a92.1 92.1 0 0 0-14.3 18.2c-4.3 7.1-3.2 11.8 2.6 15.2 4.4 2.6 9.8 4 23.2 6.4 4.3.7 8.7 1.6 13 2.6 12 3 20.6.9 32-6l4.4-2.6 4.2-2.3 7.6-4c9.6-4.8 17-7 24.5-6 3.7.5 7.3 1.9 10.4 4 7.8 5.2 8.4 12.5 4.7 25.1l-1.2 3.8c-2.6 8-3.3 11-3.3 14.5 0 10.9-5.6 23.1-15 37.3a41.3 41.3 0 0 0-5.2 10.5 88.6 88.6 0 0 1-7.9 17.5c-7.6 13.4-33.4 16.9-47.7 8.1l-6.4-3.9-17.6-10.4-26-15.7c-9.4-5.8-15.6-7.7-19.2-6.3-2.7 1-3.8 3.8-4 8.5v5.4c0 4.5-2.7 8.7-11.5 19.9-4 5-5.9 7.6-7.6 10.4-2.4 4-4 10.5-6.5 23.7l-1 5.6-1 4.4zm10.5 0h-1v-1c0-12.4 8.6-33.6 19.3-43.4 1.3-1.2 2.5-2.6 3.6-4.1 1.1-1.6 2-3.2 2.9-5l2.1-4.3c3.2-6.3 6.8-6.5 17 .4l6.4 4.4a685.7 685.7 0 0 0 20.2 13.2c14.3 8.7 25.5 13.3 34 13.3 17 0 32.8-6 39.7-14.8 1.6-2 3.2-5.2 5-9.6.8-2 1.7-4 2.7-6.8l2.8-7.4c4.6-12.4 7.7-19 11.5-23.2 8-8.8 14.9-36 14.9-52.7 0-1.9.2-3.1 1-8.3l.8-5c.6-5.6.2-9.5-1.7-12.4-4.6-7.1-19.7-9.3-38.5-4.8-6.5 1.5-12.8 3.6-19 6.3-5.1 2.4-17 9.7-16.4 9.4-6.8 3.6-13 4.1-24.8 1.3-29.6-7.1-30.5-8.6-15.3-26.8 17.5-21 47.1-46.2 56.4-46.2 10 0 53.8-12 65.8-18 9.4-4.7 24.3-21.1 36.8-37.8.7-1 13.5-21.6 19.2-29.6a93.7 93.7 0 0 1 27-27.5 56.6 56.6 0 0 0 18.7-18.8c2-2.9 10.6-17.6 12.8-20.4 1.5-1.9 3-3.2 4.5-3.9 14-6.2 24.2-9 39.2-9h29c4 0 7.4-.4 23-2.5l4.2-.6a176.5 176.5 0 0 1 27.8-1.9c18.6.2 28.6-.4 44.9-4a37 37 0 0 0 9-3.3v1.1a38 38 0 0 1-8.8 3.2 174 174 0 0 1-45 4H540c-5.2 0-11.8.6-21.6 2l-4.4.5c-15.6 2.1-18.9 2.5-23 2.5h-29a85.8 85.8 0 0 0-38.8 9c-1.3.6-2.7 1.7-4.1 3.6-2.2 2.6-10.8 17.3-12.7 20.3a57.5 57.5 0 0 1-19.2 19 93.2 93.2 0 0 0-26.6 27.3c-5.7 8-18.5 28.6-19.2 29.6-12.6 16.8-27.5 33.3-37.2 38.1-12 6-56.1 18.1-66.2 18.1-8.8 0-38.4 25.1-55.6 45.8-14.6 17.5-14.2 18.2 14.7 25.2 11.6 2.8 17.6 2.3 24.1-1.2-.7.4 11.3-7 16.6-9.4 5.4-2.5 11.6-4.6 19-6.4 19.2-4.5 34.7-2.3 39.6 5.2 2 3.2 2.5 7.4 1.9 13l-.8 5.2c-.8 5-1 6.3-1 8.1 0 16.9-7 44.3-15.1 53.3-3.7 4.1-6.8 10.7-11.4 23l-2.7 7.3a236 236 0 0 1-2.7 6.9 44.9 44.9 0 0 1-5.2 9.8c-7.1 9.1-23.3 15.2-40.4 15.2-8.9 0-20.2-4.6-34.6-13.4a330 330 0 0 1-20.3-13.3l-6.4-4.4c-9.7-6.6-12.6-6.4-15.5-.7l-2.1 4.3a36.8 36.8 0 0 1-6.8 9.4 70.3 70.3 0 0 0-18.8 42.6v1zm-29.6 0h-1.1c1.2-2.5 1.8-5.2 1.8-8 0-20 4.8-42 12.1-49.4 5.2-5.1 7.8-8.3 10-12.7 2.6-5.4 3.9-12 3.9-20.9 0-6.8 1.1-11.6 3.4-15 1.7-2.8 3.6-4.3 8.9-7.6 1.3-.8 2.6-1.8 3.9-2.8 4.6-4 6.5-6.2 7.7-9.4 1.4-4 1-9-1.9-16a69 69 0 0 0-4-8l-.9-1.8c-1-1.6-1.8-3.3-2.6-5-5.2-10.7-3.8-18.9 7.7-29.8a204 204 0 0 1 26.8-21.5c4-2.7 16.8-10.8 19.2-12.5 2-1.4 4.3-3.3 7.8-6.3l9.4-8.3c5-4.3 9.1-7.5 13-10.2 4.8-3.1 9-5.2 13-6.3 12.7-3.4 15.6-4.2 21.7-6a179 179 0 0 0 28.2-10c2.4-1.1 4.9-2 7.4-2.7a42 42 0 0 0 17-8.1 75 75 0 0 0 19.3-28c16-34.7 19.1-39.3 32.2-49.1 3.1-2.4 6.4-4.1 11.4-6.4l2.3-1c12-5.4 17-9 21.2-17.4a35 35 0 0 0 3.3-12.3c.8-5.2 1.5-7.6 3.6-10.2 2.5-3.4 7-6.3 14.3-9a152.1 152.1 0 0 1 51.6-9.5c7-.3 9.6-.7 12.7-2 1.2-.6 2.4-1.3 3.6-2.2a35 35 0 0 1 13.2-5.7 76.2 76.2 0 0 1 18.7-1.4h2.4c2.8 0 6.8-1 19.7-4.7 10.8-3 16-4.3 19.3-4.3.8 0 1.9.1 3.5.4l5 1a56 56 0 0 0 25.2-.3c8-2.2 14.8-6.8 20.3-14.2v1.6a37.2 37.2 0 0 1-20 13.6c-8 2.1-15.7 1.9-25.6.2l-5-1-3.4-.3c-3.2 0-8.3 1.2-19.8 4.5a87 87 0 0 1-19.2 4.5h-2.4c-8-.1-12.8.1-18.4 1.4-5 1.1-9.3 2.9-13 5.5-1 .9-2.3 1.6-3.7 2.2-3.3 1.5-6 1.9-13 2.1a151 151 0 0 0-51.3 9.5 30.2 30.2 0 0 0-14 8.7c-1.9 2.5-2.5 4.7-3.3 9.8-.9 6-1.5 8.6-3.5 12.5a30.6 30.6 0 0 1-9.6 11.5c-3.1 2.2-6 3.7-12 6.4l-2.3 1c-5 2.3-8.1 4-11.2 6.3-13 9.7-16 14.2-31.9 48.8a76 76 0 0 1-19.6 28.2 43 43 0 0 1-17.3 8.3c-2.5.7-5 1.6-7.3 2.7-6.2 3.2-15.7 6.4-28.3 10.1l-21.8 6a44 44 0 0 0-12.5 6.2c-4.6 3-8.9 6.4-13 10l-9.5 8.3a98.2 98.2 0 0 1-7.8 6.4L161 393.9a203 203 0 0 0-26.7 21.5c-11.1 10.5-12.4 18.3-7.4 28.6.8 1.7 1.6 3.3 2.6 5l1 1.6c1.4 2.7 2.8 5.4 4 8.2 2.8 7.2 3.3 12.5 1.8 16.7-1.2 3.5-3.2 5.8-8 9.9-1.1 1-2.3 1.8-5.3 3.6a20 20 0 0 0-7.3 6.5 26.4 26.4 0 0 0-3.2 14.5c0 9-1.3 15.8-4 21.3a46 46 0 0 1-10.2 13c-7 7.1-11.8 29-11.8 48.7 0 2.8-.6 5.5-1.7 8zm282.5 0h-1l-1-5.8c-3.2-16.3-4.1-26.2-2.8-37.3.7-5.8.8-9.6.5-15.3-.1-4.4-.1-5.6.2-7.6.8-4.3 3.5-8.5 10.4-16.3 9-10.2 12.3-15.4 19.8-30.2a142.5 142.5 0 0 1 6.2-10.8c3.1-4.7 7-8.4 16.8-16.8 11.2-9.6 15.5-13.8 18.1-19.1a53.3 53.3 0 0 0 3.5-8.5c3.6-10 8-13.9 22.9-17.8l21.3-5.3c16.2-4.1 25.4-7.4 33.5-12.6 5.9-3.8 5.9-3.8 27.7-16.6l2.6-1.5c10.2-6 17-10.2 22.7-14a149.3 149.3 0 0 0 15.2-11.3c5-4 10.4-7.4 16.1-10.3v1.2c-5.5 2.7-10.7 6-15.5 9.9l-6.4 5c-2.8 2.3-5.8 4.4-8.8 6.4-5.7 3.8-12.5 8-22.8 14l-2.6 1.5c-21.8 12.8-21.8 12.8-27.6 16.5-8.3 5.3-17.5 8.6-33.8 12.8l-21.4 5.3c-8 2-13.1 4.5-16.4 7.5-2.7 2.4-4 4.8-5.8 9.7l-1.5 4c-.6 1.6-1.2 3-2 4.5-2.7 5.5-7 9.8-18.3 19.5a84.6 84.6 0 0 0-16.7 16.6 77.2 77.2 0 0 0-6 10.7c-7.6 14.8-10.9 20-20 30.3-6.9 7.7-9.4 11.8-10.2 15.9-.3 1.8-.3 3-.1 7.4.2 5.7 0 9.6-.6 15.5-1.3 10.9-.3 20.8 2.7 37l1.2 5.9zm-76.6 0h-2l1.3-4.3c1-3.3 2-6.8 2.7-10.4A188 188 0 0 0 296 545c0-5.7-1.9-9.8-4.1-9.8-3 0-7 5.7-11 17.1-9.8 28.4-22.6 41.7-42.9 41.7a90.1 90.1 0 0 1-48.4-10 87.7 87.7 0 0 1-9.4-5.1c-3-1.8-12.8-8.6-14.9-9.8-4.2-2.3-7-2.7-9.7-1l-1.9 1.6a57.7 57.7 0 0 1-7.4 6.3l-1 .8C137 583.4 134 588.2 134 598v3h-2v-3c0-10.5 3.3-15.8 12-22.8.8-.5 1.4-1 2-1.6a55.8 55.8 0 0 0 6.2-5.4l2.3-1.7c3.5-2.2 7-1.8 11.8.9 2.1 1.2 12 8 14.9 9.8 3 1.8 6 3.4 9.2 4.9A88.2 88.2 0 0 0 238 592c19.3 0 31.5-12.7 41-40.3 4.3-12.3 8.7-18.5 12.9-18.5 3.8 0 6.1 5.1 6.1 11.8 0 17.8-.6 28.8-3.3 41.7a107.1 107.1 0 0 1-4 14.3zm-149.2 0l.5-1c2.4-4.3 4.6-8.7 6.5-13.2 2.8-6.3 5.8-9.6 9.3-10.5 3.7-1 7.1.7 12.5 5.1 5.5 4.4 6.1 4.9 7.8 5.1 1.6.2 4.2 1.1 8.8 3l13.9 5.5a268.1 268.1 0 0 0 17.1 6h-3.4a173.6 173.6 0 0 1-14-5l-14-5.6a49.5 49.5 0 0 0-8.6-3c-2-.2-2.5-.6-8.2-5.2-5.2-4.2-8.4-5.8-11.7-5-3 .8-6 4-8.6 10a161 161 0 0 1-6.8 13.8h-1.1zm112.9 0a30.3 30.3 0 0 0 16.6-12.6 129.4 129.4 0 0 0 6-8.9l.4-.8 1-1.4c1-1.7 2-3.3 3.2-4.9 1-1.4 1.8-2.2 2.4-2.4 1-.4 1.5.4 1.5 2v2.1c0 7 0 11.3-.7 16.3-.4 3.6-1.2 7.2-2.4 10.6h-1c1.2-3.5 2-7 2.4-10.7.6-5 .8-9.3.7-16.2V572c0-1 0-1.1-.2-1.1-.3.1-1 .9-2 2.1a88.4 88.4 0 0 0-3.2 4.8l-.9 1.5-.4.7a1268 1268 0 0 1-6 9 30.9 30.9 0 0 1-14.4 12h-3zm-183.7 0h-1.4c3.4-3.4 5.2-8.3 5.2-15 0-18.6 0-17.4 1-20.8.6-1.9 1.5-3.7 3.3-6.6l6.8-10.9c3-5 11-16.5 12.2-18.5 3.5-6.1 4.7-12 4.7-24.2a43 43 0 0 1 8-23.4l3-4.7 2.4-4.4c1.6-3.1 2.5-5.8 2.6-8.3.2-3.7-1.3-7.2-4.9-10.8-5-5.2-8.6-5.5-11.2-1.9-2 3-3.4 7.7-5 16.5l-.8 4.5c-.9 4.7-1.4 7.4-2.1 9.6a28.4 28.4 0 0 1-8.4 12.3l-3.3 3.2a35.8 35.8 0 0 0-11.3 19.5l-1.2 5.5a138 138 0 0 1-25 54.7c-7.6 11.1-11 18.8-10.8 23.7h-1c-.1-5.2 3.3-13 11-24.3a137.3 137.3 0 0 0 24.8-54.3l1.2-5.5a36.6 36.6 0 0 1 11.6-20l3.3-3.2c4.6-4.6 6.8-7.6 8.1-11.8.9-3.2 1.6-6.3 2-9.5l.9-4.6c1.6-8.9 3-13.8 5.2-16.9 3-4.1 7.2-3.8 12.7 1.8 3.8 3.8 5.5 7.5 5.2 11.6-.1 2.7-1 5.4-2.7 8.7l-2.5 4.4-2.8 4.7a42 42 0 0 0-8 22.9c0 12.3-1.3 18.4-4.9 24.7-1.2 2-9.2 13.6-12.2 18.6L79.6 559a27.8 27.8 0 0 0-3.1 6.4c-1 3.3-1 2.1-1 20.5a22 22 0 0 1-4.8 15zM310 1h1L310 3.8c-3.8 9-5.4 15.2-5.4 25.2 0 7.6-2.1 11.6-6.6 13-3.5 1.1-5.8 1-17.6-.4a95 95 0 0 0-28.2-.1c-6.2 2.5-25.9 7-32.1 7a299 299 0 0 1-54.1-7 22 22 0 0 0-17 2.5c-4 2.3-7 5-13.9 12a55.9 55.9 0 0 1-13.8 11.4c-7 3.8-11.2 7.7-13.4 12.3a33.7 33.7 0 0 0-2.3 15.3c0 4.4-2.7 6.7-9.5 9.7.2 0-3 1.3-3.8 1.8-8.8 4-12.7 8.2-12.7 16.5 0 12.5-4.9 19.2-17.3 28l-4.6 3.1a178 178 0 0 0-7.3 5.3c-7.1 5.6-11 14.5-15.5 33.3l-4.1 17.1c-1.6 6.5-3.3 13-5.2 19.3l-5 16.6c-1 3.4-1.6 5-2.4 6.3-.9 1.4-6.9 9-12.7 18.3L0 279v-2l4.6-7.3c4-6.2 8.1-12.3 12.6-18.2-.3.5 1.3-2.8 2.4-6.1.4-1.5 3.5-12 5-16.6 1.8-6 3.4-12 5.1-19.2l4-17.2c4.7-19 8.6-28 16-33.8a79.4 79.4 0 0 1 7.3-5.3l4.6-3.2c12.2-8.5 16.9-15 16.9-27.1 0-8.7 4.2-13.3 13.3-17.5l3.8-1.7c6.5-2.9 8.9-5 8.9-8.8 0-7.6.5-11.7 2.4-15.7 2.3-4.8 6.6-8.9 13.9-12.7a58 58 0 0 0 14.1-12c6.3-6.4 9.4-9.1 13.5-11.5a23 23 0 0 1 17.7-2.6c17.3 4.1 42.8 7 53.9 7 6.1 0 25.7-4.5 32-7a95.8 95.8 0 0 1 28.4.1c11.6 1.4 14 1.5 17.2.5 4-1.3 5.9-4.9 5.9-12.1 0-10.1 1.6-16.3 6.6-28zm25.1 0h1c0 5.6.3 11.5.7 19.4.4 9.7.6 14.6.6 21.6a27 27 0 0 1-13.1 23.2c-6.5 4.4-15 7.4-24.3 9.3-3.8.5-9.5.5-22.7.2l-12.4-.2c-2.8 0-5 .4-7.6 1.4l-5.6 2a69.5 69.5 0 0 1-47.3-1.3l-3.1-1.3c-12.6-4.8-21.3-5.1-37.2 1.2a48.7 48.7 0 0 0-22.3 14.8 34.4 34.4 0 0 0-6 15.8c-1.2 6-1.9 8.7-3.4 12.1a14 14 0 0 1-7.1 7.2c-2.3 1.1-4.4 1.5-9.3 2.2-9 1.3-12.8 3.1-15.6 9.6A53 53 0 0 1 86.2 158l-15.9 13.4a69.1 69.1 0 0 0-18.7 32 258.8 258.8 0 0 0-6.1 20.8C37 253 27.6 277 19.4 285.4a103 103 0 0 0-10.4 13c-3.5 4.6-6.3 8.2-9 11V308c2.7-3 5.7-6.9 9.5-12 4-5.5 6.3-8.4 9.1-11.3 8.1-8 17.5-32 26-60.8l2.8-10c1.2-4.3 2.2-7.6 3.3-10.8a70 70 0 0 1 19-32.4c2.8-2.4 13.5-11.2 15.9-13.4a52 52 0 0 0 14-19.4c1.6-3.8 4-6.3 7.1-7.9 2.4-1.1 4.7-1.6 9.6-2.3 4.5-.6 6.5-1 8.7-2a13 13 0 0 0 6.6-6.8c1.5-3.3 2.2-6 3.4-12a35.3 35.3 0 0 1 6-16.1 49.6 49.6 0 0 1 22.8-15.2c16.2-6.3 25.1-6 38-1l3.1 1.2a68.6 68.6 0 0 0 46.6 1.3c1-.3 4.6-1.8 5.5-2 2.6-1 5.3-1.5 8-1.5 3 0 5.7 0 14 .3 11.6.3 17.3.2 20.9-.3a66 66 0 0 0 24-9.2A26 26 0 0 0 336.4 42c0-7-.2-11.9-.7-22.7-.4-7.3-.6-12.8-.6-18.3zM94 1h2a30 30 0 0 1-3 9.5 63.9 63.9 0 0 0-5.3 13c-.5 1.7-1.2 3.4-2 5-2.2 4.7-5.8 8.8-13 14.3-8 6.1-14.3 16.5-20 31.5-2.4 6.3-8.8 25.7-9.7 28A81.4 81.4 0 0 1 27.3 126l-2.7 3.3c-6 7.3-9.3 12-11.7 17.1-2.3 5-7.1 10-12.9 14.2v-2.4c5.1-4 9.1-8.3 11.1-12.6a83.3 83.3 0 0 1 12-17.6l2.7-3.3a79.4 79.4 0 0 0 15.3-23c.8-2.4 7.2-21.8 9.6-28 5.9-15.4 12.3-26 20.7-32.5 7-5.3 10.4-9.2 12.5-13.5a38 38 0 0 0 1.8-4.8c2.5-7.4 3-8.9 5.4-13.4C92.5 7 93.4 4 94 1zm9 0h1c-1.6 8.3-2.9 12.7-4.5 15.3a125.8 125.8 0 0 0-7.6 17.6c-.4 1-.7 2.1-2.4 5.4-4.4 4.2-8.7 8.7-12.8 13.3-3.5 4-6 7.2-7.1 9.6-1 2-2.1 6-3.7 13l-4.5 21c-3.6 16.5-6.6 26.8-9.9 32-7.6 12.5-10.6 15.8-37 41.2A69.8 69.8 0 0 1 0 180.2v-1.1c5-3 9.5-6.4 13.7-10.5C40 143.3 43 140.1 50.5 127.7c3.2-5.1 6.1-15.3 9.8-31.7l4.5-21c1.5-7.1 2.7-11.2 3.7-13.2 1.2-2.5 3.7-5.9 7.3-10A149 149 0 0 1 86.1 41l3.4-3.5c1.4-4.5 3-9 4.8-13.4a60 60 0 0 1 4.2-8.4c1.5-2.4 2.7-6.7 4.3-14.7zM83.7 1h1.1c-2 4.7-6 9-11.4 12.3A48.4 48.4 0 0 1 49 20.5c-8.9 0-11.8 7-11.7 21.5a203.8 203.8 0 0 0 .2 12 70.8 70.8 0 0 1-4.2 23.5 2597.8 2597.8 0 0 1-26.9 59.7A54.6 54.6 0 0 1 0 148v-1.7c2.2-3 4-6.2 5.5-9.5 8.6-18.6 17-37.2 25.2-55.8l2.4-6a69.2 69.2 0 0 0 3.3-27l-.1-6c0-6.8.5-11.6 2-15.3 2-4.7 5.4-7.2 10.7-7.2 7.7 0 16.8-2.6 23.9-7 5-3.2 8.8-7.1 10.8-11.5zm282.6 0h1c2 10 2.2 12.7 2.4 18.3 1.1 9.2 1.3 18.6.3 27.8-1 8.8-3 16-6.6 21.2-11.3 16.5-39.8 29.2-66.4 29.2-5 0-10.5.3-16.3.8-8.2.8-16.3 1.9-24.4 3.2-21.5 3.3-27.6 4-36.3 4-7 0-12.2-1-21.7-3.9l-2.8-.8c-1.4-.4-2.5-.8-3.6-1-8-2.1-14.2-2-21.7.7-4 1.4-7.3 4.3-9.2 8.2a49 49 0 0 0-4 12.8 47.2 47.2 0 0 1-4 12.6c-2 4-5.5 7-9.8 8.4-3.3 1-6.4 2.1-9.5 3.4a30 30 0 0 0-13.8 10.5c-1.4 1.7-1 1.3-5.5 7.9a47 47 0 0 1-8.5 9.1c-2 1.8-10.7 8.8-12.8 10.7a73.4 73.4 0 0 0-16.7 19.2c-4.2 7.3-7.8 18.3-11.3 33.2l-2.6 12.2-1.2 5.8-1 5.4c-1.9 9-2.8 13.3-3.8 16.3-6.8 20.4-17.3 42.1-27.2 51.2a68 68 0 0 1-14 10.4c-.4.2-9.6 4.4-14 6.6l-1.3.7v-1.2l.8-.3c4.5-2.3 13.7-6.5 14-6.7l3-1.5c2.9-1.8 5.8-4.1 10.9-8.8 9.7-8.9 20-30.5 26.8-50.8 1-2.9 2-7.2 3.8-16l1-5.6 3.9-18a128 128 0 0 1 11.4-33.4c4-7.2 9.4-13 16.8-19.5 2.2-1.8 10.9-8.9 12.9-10.7 3.8-3.2 6.4-6 8.3-8.9 4.4-6.6 4.1-6.2 5.5-8 3.8-5 7.5-7.8 14.2-10.7 2.6-1.1 5.7-2.3 9.5-3.5 4.1-1.2 7.5-4 9.3-7.8 1.6-3 2.4-5.9 4-13 1.5-6.3 2.4-9.4 4-12.5 2-4 5.5-7.2 9.7-8.7a34.6 34.6 0 0 1 22.3-.7l3.7 1 3.7 1.1a65 65 0 0 0 20.5 3.6c8.6 0 14.7-.8 36.2-4 8-1.3 16.2-2.4 24.4-3.2 5.9-.5 11.3-.8 16.4-.8 26.3 0 54.4-12.6 65.6-28.8 3.4-5 5.5-12 6.4-20.7a123.1 123.1 0 0 0-.5-29c0-4.5-.3-7-2.2-17zM19 1h1a79 79 0 0 1-5.4 16.2c-2 4.4-2.7 9.2-2.5 14.9.2 4.3.8 7.7 2.3 16.1 1.1 5.9 1.6 8.8 2 12.2 1 9 .2 16.1-2.8 22.8-4.2 9.2-8.7 18.3-13.5 27.2v-2a465 465 0 0 0 12.5-25.6 41 41 0 0 0 2.8-22.3c-.4-3.4-.9-6.2-2-12.1-1.5-8.5-2-11.9-2.3-16.3a33 33 0 0 1 2.5-15.3C16.2 10.9 17 8.3 19 1zm280.5 0c-1.4 3.9-3 7.6-5 11.2-2.5 4.7-4 8.5-4.8 12l-.4 1.8-.3 1.5c-.1.7-.4 1.4-.7 2-.8 1-2 1.3-5.2 1.3 1 0-9.8-.3-15-.3-10.2 0-18.4.8-29.5 2.6a95.7 95.7 0 0 1-23.6 2.5c-2.7-.1-5.4-.5-8-1.1-17.7-4.2-46.2-5.9-54.7-3-2.8.9-6 2.8-9.6 5.6-2.2 1.7-4.4 3.5-6.5 5.4l-10.8 9.9-8.8 8-4.6 4c-5 4-8.9 6.1-11.9 6.1-3.5 0-4.3 0-5.1-.4-1.2-.5-1.5-1.7-1.2-3.6.8-3.6 4.5-10.8 12.9-24.8 5.7-9.4 9.4-18 11.8-26.2 1.4-5 1.9-7.4 3-14.5h1c-1.1 7.3-1.6 9.7-3 14.8-2.5 8.3-6.2 17-12 26.5-8.3 13.8-12 21-12.7 24.4-.3 1.5 0 2.2.6 2.5.6.3 1.4.4 3.5.3 4 0 7.7-2 12.5-6l4.5-3.8c.7-.6 7.4-6.9 8.9-8l10.7-9.9c2.4-2.1 4.6-4 6.6-5.5 3.8-2.9 7-4.8 9.8-5.8 8.8-2.9 37.4-1.2 55.3 3 2.6.6 5.2 1 7.8 1 5.9.3 6.7.2 23.5-2.4a176 176 0 0 1 29.6-2.6c5.2 0 16 .3 15 .3 3 0 3.9-.2 4.3-.8.3-.4.4-.8.6-1.7l.3-1.5.4-1.8c.9-3.6 2.4-7.5 5-12.2 1.8-3.5 3.4-7 4.7-10.8h1zm-8.6 0c-6 18-9.6 22-19.8 22-4.5 0-10.2.3-28.7 1.5l-1.5.1c-15.6 1-23.5 1.4-28.8 1.4-5.3 0-13.2-1-28.9-3.3l-1.5-.2A232.3 232.3 0 0 0 153 19c-4.4 0-7.3 1-11 3.3l-2.3 1.5A12 12 0 0 1 133 26c-2.8 0-4.1-1.5-4.1-4.2 0-1 .2-2.3.5-4.1l1-5.3c.9-4.2 1.4-7.7 1.5-11.4h2c-.1 3.8-.7 7.5-1.5 11.8l-1 5.3a21 21 0 0 0-.5 3.7c0 1.7.4 2.2 2.1 2.2 2 0 3.6-.6 5.7-1.9l2.3-1.4c4-2.6 7.1-3.7 12-3.7 4.6 0 10.3.7 28.9 3.5l1.5.2C199 23 206.8 24 212 24c5.3 0 13.1-.4 28.7-1.4l1.5-.1c18.5-1.2 24.2-1.5 28.8-1.5 9 0 12.1-3.4 17.7-20h2zM141.5 1h1.1c-2 3.9-2.6 5.1-2.7 6.2-.2 1.1.4 1.6 2.3 2 1.8.3 3.8.3 10.8.3 6 0 13 .6 21.3 1.6 4 .5 8 1.1 13.2 2 24 3.6 22.5 3.4 26.8 3.4 24 0 51.8-2.2 60.5-7 2.8-1.5 5-4.4 6.6-8.5h1c-1.6 4.5-4 7.7-7.2 9.4-8.8 4.9-36.6 7.1-60.9 7.1-4.4 0-2.8.2-27-3.5l-13-1.9c-8.4-1-15.3-1.6-21.3-1.6-7 0-9.1 0-11-.4-2.3-.4-3.3-1.3-3.1-3 .1-1.3.7-2.4 2.6-6.1zM218 1A53.2 53.2 0 0 0 232 3.5c9.6 0 16.7-.7 22.4-2.5h3a68.2 68.2 0 0 1-43 0h3.5zM70.7 1c-2.9 3.3-7 5.4-12 6.5a51.8 51.8 0 0 1-14.7 1c-5.4 0-8.9-1.2-10.1-5-.3-.8-.4-1.6-.4-2.5h1c0 .8.1 1.6.4 2.2 1 3.2 4.1 4.3 9.1 4.3h1.8c5.3.1 8.8 0 12.7-1 4.5-1 8.1-2.8 10.8-5.5h1.4zM0 208.9c7.3-.2 11.5 3.3 11.5 11.1 0 11.4-5 28.3-11.5 41.5v-2.3c6-12.7 10.5-28.5 10.5-39.2 0-7.2-3.7-10.3-10.5-10.1v-1zm0 7c1.2.2 2.2.6 2.9 1.3 1.4 1.5 1.6 3.8 1.1 7.6l-.1 1.3A67 67 0 0 1 0 246v-3.5A54.7 54.7 0 0 0 2.9 226l.1-1.3c.5-3.6.3-5.6-.9-6.8-.5-.5-1.2-.8-2.1-1v-1zm0 196v-1.5c1.2-1.4 2.2-3 3-4.7 1.3-2.7 2.7-6.3 4.5-11.9 7.9-23.5 7.9-26.6.3-30.4a12.2 12.2 0 0 0-7.8-.9v-1c2.8-.5 5.7-.2 8.2 1 8.3 4.2 8.3 7.6.3 31.6a98.5 98.5 0 0 1-4.6 12c-1 2.2-2.3 4.1-3.9 5.8zM33.6 453c1.7 0 3-.2 8.4-1.3l2.4-.5c8.2-1.6 12.7-1.3 14.5 2.4 1.4 2.7-.5 5.8-4.8 9.6a75.6 75.6 0 0 1-5 4.1l-5.8 4.3c-1.9 1.4-3 2.3-3.5 3a19 19 0 0 0-2.9 5.5c0-.2-4 13.6-7 22.2-2.6 7.9-5.5 10.7-8.8 8.6-2-1.4-3.6-4.2-6.6-11a77 77 0 0 0-3.4-7.4c-4.5-8.2-3.9-24 0-32.9 1.1-3 3.8-5.3 7-6 2.5-.6 4.8-.7 11.7-.6h3.8zm0 2h-3.8c-12-.1-14.8.6-16.9 5.4-3.6 8.5-4.2 23.5 0 31.1 1 1.7 1.4 2.9 3.5 7.6 2.7 6.3 4.2 9 5.8 10.1 1.7 1.1 3.5-.8 5.9-7.5l7-22.3a21 21 0 0 1 3.1-6c.6-.9 1.8-1.9 3.9-3.4l5.8-4.3a72 72 0 0 0 5-4c3.5-3.2 5-5.7 4.2-7.3-1.2-2.4-5-2.6-12.4-1.2l-2.3.4a43 43 0 0 1-8.8 1.4zm345.7 146a58.7 58.7 0 0 1-3.8-19c0-3.3-.1-6.3-.4-11.3-.7-10.4-.7-13.5.2-17.1 1.2-4.8 4.2-7.1 9.7-7.1h26c4 0 5.2 1.8 6 7.1l.1 1.3c.9 5.4 2.8 7.6 8.9 7.6 3.6 0 5.5.4 6.4 1.4.8.8.8 1.4.4 3.9-.9 5.3.5 8.9 7.5 13.8 6.3 4.4 11.6 5.4 16.5 3.4 3.8-1.6 6.8-4.2 12-10l1-1.3 1.1-1.2 2.8-2.9c2.7-2.7 6-5 9.5-6.7l5.7-2.6a30 30 0 0 0 11.7-7.6c2.6-3 4.7-4.9 6.7-6 3.2-2 5.5-2.2 13.7-2.2 6 0 10.6-4.3 18-15l2.8-4 2.8-3.8c7.9-10.1 19.4-10.4 30.8 1 5.5 5.5 10.1 19.4 13.6 38.5 2.5 13.7 4.2 29.4 4.5 39.8h-1c-.3-10.3-2-26-4.5-39.7-3.4-18.8-8-32.6-13.4-38-10.9-10.9-21.7-10.6-29.2-1l-2.8 3.8-2.8 4c-7.6 11-12.3 15.4-18.8 15.4-8 0-10.2.3-13.2 2a27 27 0 0 0-6.4 5.8 31 31 0 0 1-12.1 8c-2 .7-3.8 1.6-5.6 2.5a34.8 34.8 0 0 0-13.1 10.6l-1.1 1.2c-5.3 6-8.3 8.7-12.3 10.3-5.2 2.1-10.9 1.2-17.5-3.5-7.3-5.2-8.8-9.1-7.9-14.8.3-2 .3-2.6-.1-3-.6-.8-2.3-1.1-5.7-1.1-6.6 0-9-2.6-9.9-8.4l-.2-1.4c-.6-4.8-1.5-6.2-4.9-6.2h-26c-5 0-7.6 2-8.7 6.3-.9 3.5-.9 6.6-.2 16.8.2 3.8.4 7.6.4 11.4 0 4.8.3 6.6 3.8 19h-1zm13.6 0a55 55 0 0 1-1.1-17.2l.2-2.6c.3-3.8.5-7 .5-11.2 0-5 1.5-7.8 4.2-8.4 2.4-.6 5.6.5 9.2 3 6.7 4.5 14 13 16.6 19.2 4.7 11.5 14 15.7 33.5 15.7 8.6 0 14.3-2.4 20.7-7.9 1.4-1.2 15-15 21-20 7.2-6 11.7-7.6 20.6-8.3 5.5-.4 8-.9 11.4-2.4 4.6-2 9.4-5.4 15-11.3 7.4-7.7 13.2-8.9 17.4-4.3 3.3 3.7 5.5 10.6 6.8 20.3.8 5.2 1 7.7 1.6 17.4.3 3.7.2 5.3-1 18h-1c1.2-12.7 1.3-14.3 1-18-.6-9.6-.9-12.1-1.6-17.3-1.3-9.4-3.4-16.2-6.5-19.7-3.8-4-9-3-16 4.4a47.5 47.5 0 0 1-15.3 11.5c-3.6 1.5-6.1 2-11.6 2.4-8.8.7-13.1 2.2-20.2 8-5.9 5-19.5 18.8-21 20a29.4 29.4 0 0 1-21.3 8.2c-19.8 0-29.5-4.4-34.5-16.3-2.4-6-9.7-14.4-16.2-18.8-3.4-2.3-6.3-3.3-8.4-2.9-2.2.6-3.4 3-3.4 7.5 0 4.3-.2 7.5-.5 11.3l-.2 2.6-.2 2.3c-.3 4.1 0 8.2 1.4 14.8h-1zm113.8 0l10.9-14.3c5.5-7 13-12.4 19.4-14 7-1.7 11.5 1.5 11.5 9.3 0 4 0 5.2-.7 19h-1c.7-13.9.7-15 .7-19 0-7.1-3.9-9.8-10.3-8.3a38.6 38.6 0 0 0-18.8 13.6L508 601h-1.3zm-9.9-339c3.5 2.8 7 5.1 11.5 7.8l10.3 6c11.3 7 15 13.4 12.4 25.4a22.4 22.4 0 0 1-9.4 14.5c-3.8 2.6-8 4.2-16 6.5-12 3.5-13.8 4-19 6.3a60.2 60.2 0 0 0-7.7 4.2c-11.1 7-19.1 7.7-28 3.3-3.5-1.8-17.2-11-17.2-11l-5.2-3.1c-16-8.8-34.3-24.2-34.5-31.9-.1-3.4 2-6.5 6.3-10.2a69 69 0 0 1 3.7-3l3.9-3c4.5-3.4 7.2-5.8 9.3-8.4 11.1-13.8 26.6-28.7 34.4-32.3 12-5.5 19.8-5.8 27.3.1 3.3 2.6 5.7 6.6 8.6 13.4.3.6 2.3 5.4 3 6.7a20 20 0 0 0 4.1 7l2.3 1.7zm-3.4-.2c-1.7-1.4-3-3.8-4.8-7.7l-2.9-6.8c-2.8-6.5-5-10.3-8-12.5-6.8-5.4-13.8-5.2-25.3.1-7.4 3.4-22.7 18.1-33.6 31.7-2.3 2.8-5.1 5.3-9.7 8.8l-4 3a80 80 0 0 0-3.5 2.9c-3.9 3.3-5.7 6-5.6 8.7.2 6.6 18.1 21.7 33.5 30.1l5.3 3.1c.1.1 13.6 9.3 17 11 8.2 4 15.5 3.5 26-3.2 2.6-1.6 5.3-3 8-4.3 5.3-2.4 7-3 19.2-6.4a50.6 50.6 0 0 0 15.5-6.3c4.4-3 7.2-7.2 8.5-13.2 2.5-11-.8-16.6-11.4-23.2l-10.4-6.1a104.6 104.6 0 0 1-13.8-9.7zM87.7 242.6c4.3-3 7.9-5 12.2-7l2.7-1.2 4.4-1.9c6.1-2.6 12-5.6 17.8-9 9-5.2 18.3-10 27.8-14.4 4.2-2 22-9.9 21.2-9.5 19.2-8.7 28-7 49.5 8 7.9 5.5 13.2 13.3 16.4 22.7 3 8.8 3.8 16.5 3.8 27.7 0 8.3-.7 13-3.7 19a58.5 58.5 0 0 1-25.6 23.4 142.6 142.6 0 0 0-52.8 47.9c-8.8 12.8-47.8 44.2-65.2 54.1C75 414.6 49 424.5 31 424.5c-10 0-14.7-4.8-14.8-13.4 0-6.3 2.1-13.7 6.3-24.3 3-7.4 2-12.9-2.1-22.3-3.2-7.1-3.9-9.1-3.9-12.5 0-3.4 1.9-6.9 5.5-11 2.6-3 3.5-3.9 12-11.6 5-4.6 8-7.6 10.6-10.7 9.5-11.4 12.6-19.5 18-44.8 3-15 6.6-20.3 15-25.2l4.7-2.7c1.9-1 3.7-2.2 5.4-3.4zm.6.8a77.6 77.6 0 0 1-5.5 3.4l-4.7 2.7c-8.2 4.8-11.5 9.8-14.6 24.6-5.3 25.5-8.5 33.7-18.1 45.2a111 111 0 0 1-10.8 10.9c-8.4 7.6-9.3 8.4-11.8 11.4-3.5 4-5.3 7.3-5.3 10.4 0 3.2.7 5.1 3.8 12.1 4.3 9.6 5.2 15.4 2.2 23.1a66.2 66.2 0 0 0-6.3 24c.1 8 4.3 12.3 13.8 12.3 17.7 0 43.7-9.9 64.8-22 17.2-9.8 56-41.1 64.8-53.8 14-20.4 28.6-34.6 53.2-48.1a57.5 57.5 0 0 0 25.1-23c3-6 3.6-10.4 3.6-18.6 0-11.1-.7-18.7-3.7-27.4a43.2 43.2 0 0 0-16-22.2c-21.2-14.8-29.8-16.4-48.6-8L153 210l-4.8 2.3c-7.8 3.7-15.5 7.8-23 12.1-5.7 3.4-11.7 6.4-17.8 9l-4.4 2-2.7 1.2c-4.2 1.9-8.2 4.2-12 6.8zm-7.6 12.2a52.5 52.5 0 0 1 23.7-11.3c6-1.6 9-2.9 12.3-5.7 3.8-3.3 7.4-4.5 15.8-6l5-1c5.6-1.3 9.6-3 13.2-6a63.6 63.6 0 0 1 36.3-14c5.3 0 16.8 7.5 25.7 17 10.8 11.5 16 23.3 12.8 32.6-3.2 9-11.4 18.5-23 27.8-8.5 6.8-18.4 13-25.3 16.5a24.7 24.7 0 0 0-9.8 10c-.6 1-11 20.2-16 27.8-5.6 8.6-15.4 17.3-30.2 28l-9.2 6.4-8.6 5.9c-6.5 4.4-10.4 7.3-13 9.8-11.7 10.7-37.2 15.5-43.8 9-2-2-2.2-4.1-2-10.6.5-9.4-.4-14.5-4.9-20.5a34 34 0 0 0-7-6.9c-4-3-6-6.1-6.6-9.5-1-6.6 4-13 14.2-21.7l7.1-5.8a48 48 0 0 0 5.2-4.7c4.1-4.6 5.9-9.6 7.8-20a501.5 501.5 0 0 0 1.7-9.2 173 173 0 0 1 2.4-10.6c1-3.8 1.4-5.5 2.4-10.4.6-3 .9-4.2 1.5-5.5 1.3-2.4 1.3-2.5 12.3-11.4zm.6.8c-10.8 8.7-10.9 8.8-12 11a20 20 0 0 0-1.5 5.3c-1 4.9-1.3 6.6-2.3 10.4a170.7 170.7 0 0 0-3.7 17.5l-.4 2.2c-2 10.7-3.8 15.7-8 20.5a48.8 48.8 0 0 1-5.4 5l-7 5.7c-10 8.4-14.8 14.6-13.9 20.8.5 3 2.5 6 6.2 8.8a35 35 0 0 1 7.2 7.1c4.7 6.3 5.6 11.6 5.2 21.2-.3 6.1 0 8 1.6 9.8 6.2 6 31 1.3 42.4-9 2.7-2.6 6.6-5.5 13.1-10l8.6-5.9a508 508 0 0 0 9.2-6.4c14.7-10.5 24.5-19.1 30-27.7 4.9-7.5 15.3-26.6 16-27.8 3.3-5.2 6.3-8.4 10.2-10.3a157 157 0 0 0 25-16.4c11.5-9.1 19.6-18.5 22.7-27.4 3.1-8.7-2-20.2-12.5-31.5-8.8-9.4-20-16.8-25-16.8a62.6 62.6 0 0 0-35.7 13.9 31 31 0 0 1-13.5 6l-5 1.1c-8.3 1.6-11.9 2.7-15.5 5.9a28.3 28.3 0 0 1-12.7 6c-11.2 3-15.7 4.8-23.3 11zm130.7-3.5c0 7.5-.6 10.9-2.6 14.2-1.1 1.9-7.7 10.1-8.6 11.3-6 8-9.3 10.3-17.3 13.8l-3 1.5-2 1-5.5 2.4c-6 2.8-9 5.8-9 10.8 0 11-19 36-34.5 44.8a131 131 0 0 1-32.8 11.9c-13.3 2.9-22.5 2.5-24.6-2.3-1.3-3-4.4-4.3-12-5.9h-.6c-4.8-1-7-1.6-9-2.7-3-1.5-4.5-3.7-4.5-6.8 0-2.8 1-5.8 3.3-9.7.8-1.6 1.8-3.1 3.2-5.4l3.6-5.7a50.2 50.2 0 0 0 9.9-27.3c0-18.4 11.2-33.3 27.5-42.8a19 19 0 0 1 15.2-2.1c5 1 6 .9 7.4-1.6 4.5-7.8 7-9.5 15.9-9.5 4 0 7-1 10.5-3.1 1.5-1 8.6-6.2 11-7.7 9.2-6 11.3-7 25.2-12 7-2.4 15.1 1.3 22.3 9.2 6.5 7.2 11 16.6 11 23.7zm-2 0c0-6.6-4.3-15.5-10.5-22.4-6.7-7.3-14.2-10.7-20.2-8.6a86.2 86.2 0 0 0-24.8 11.8c-2.2 1.5-9.3 6.7-11 7.7a20.5 20.5 0 0 1-11.5 3.4c-8 0-10 1.3-14.1 8.5-1.1 2-2.5 3-4.4 3.1a15 15 0 0 1-5.2-.6c-5.5-1-9-.9-13.8 2-15.7 9-26.5 23.5-26.5 41a52 52 0 0 1-10.1 28.3l-3.7 5.8-3.2 5.3c-2 3.6-3 6.3-3 8.7 0 4.1 2.9 5.6 11.9 7.5h.6c8.3 1.8 11.7 3.2 13.4 7 3.2 7.2 36 0 54.6-10.4 15-8.4 33.5-33 33.5-43.1 0-6 3.5-9.5 10.2-12.6l5.5-2.4a28.8 28.8 0 0 1 5-2.6 33.3 33.3 0 0 0 16.5-13c1-1.4 7.5-9.5 8.5-11.2 1.8-3 2.3-6 2.3-13.3zm-37.2-22.5c.2 0 2.4-1.5 3-1.8 1-.6 1.7-1 2.4-1.2 2.6-.8 5 0 11 3.2 14.9 8 19.5 22.8 9.2 38.7-4 6.2-9.3 9-18.7 11l-3.1.8c-6 1.3-8.8 2-11.6 3.6-3.7 2-6.1 5-7.5 9.4-7.9 25-19.8 43.4-36.3 50.4-16.5 6.9-21.1 8.5-28 8.9-5 .2-9.8-.7-15.4-3-2-.7-3.8-1.5-5.6-2.5-4-2.4-5.2-4.8-4.5-9.3.3-2.2 3.7-15.6 4.8-20.7a204.6 204.6 0 0 0 3.1-18.6 68.7 68.7 0 0 1 4.5-18.6 20 20 0 0 1 11.7-11.2 52.1 52.1 0 0 1 18-3.5c4.8-.3 6.7-.6 9-2l1.9-1.4c1.2-1 2.3-2.2 3.3-3.4l2.7-3.2c3.3-4 6.3-5.5 12.3-5.5 4 0 5.9-1 8.2-3.4l3.8-4.2c2-2 4.3-3.6 6.8-5l5-2.4a65 65 0 0 0 10-5zm-14.5 8.4a30 30 0 0 0-6.6 4.8l-3.8 4.2c-2.5 2.7-4.7 3.7-8.9 3.7-5.7 0-8.4 1.4-11.6 5.2l-2.6 3.2a31.6 31.6 0 0 1-5.4 5c-2.5 1.4-4.6 1.8-9.5 2.1a51 51 0 0 0-17.7 3.5c-5.4 2-8.8 5.4-11.2 10.6-2 4.2-3 9-4.4 18.4l-.6 4.3-.8 4.6c-.5 3.5-1 6.6-1.7 9.7-1 5.2-4.5 18.5-4.8 20.6-.6 4.2.3 6.2 4 8.3a45.4 45.4 0 0 0 20.5 5.3c6.6-.3 11.3-1.9 27.6-8.8 16.2-6.8 28-25 35.7-49.7 1.5-4.7 4.1-7.8 8-10 3-1.6 5.7-2.4 11.9-3.7l3-.7c9.2-2 14.3-4.7 18.2-10.7 9.9-15.3 5.5-29.5-8.8-37.3-5.8-3-8-3.7-10.3-3l-2.2 1-3 1.9a66 66 0 0 1-10.1 5.2c-1.8.7-3.4 1.5-4.9 2.3zm-42.4 32.7c16.2-2.9 26.4-1 32.5 6.2 5 5.9 1.1 21.4-6 35.5a64.2 64.2 0 0 1-23.1 25.2c-14.2 10.1-35.5 12.2-40.7 3.9-1.9-3-2.1-8.2-1-15.8.7-5.6 1.8-10.7 4.7-23v-.5c1.7-6.8 2.4-10.3 3.2-14.1 1.5-7.3 3.8-11.5 7.3-13.7 2.8-1.8 5.5-2.3 12.3-2.7 5.3-.2 7.6-.4 10.8-1zm.2 1c-3.3.6-5.6.8-11 1-6.6.4-9.2.8-11.8 2.5-3.2 2.1-5.4 6-6.8 13.1l-3.2 14.2v.5c-3 12.2-4 17.2-4.8 22.9-1 7.3-.8 12.3 1 15 4.7 7.7 25.5 5.7 39.2-4.1a63.1 63.1 0 0 0 22.9-24.8c6.8-13.7 10.7-29 6-34.5-5.8-6.8-15.7-8.6-31.5-5.8zm15.9 5c7.1 0 10.7 3 11.3 8.7.4 4-.5 8.1-2.8 16-2.6 8.5-18.4 25.3-27.2 31.2-7 4.7-20 5.7-26.6 1-4-2.8-3.5-12 0-26.4a231.7 231.7 0 0 1 5.5-19l.3-1.1c1.5-4.8 5.1-7.8 10.8-9.3 4.4-1.2 9.5-1.5 17.4-1.4l4 .2 7.3.1zm0 1l-7.4-.1-3.9-.1c-7.8-.2-13 0-17.2 1.3-5.3 1.4-8.7 4.1-10 8.5a1277.8 1277.8 0 0 1-3.4 11.4c-1 3-1.7 6-2.4 8.7-3.4 13.9-3.9 23-.4 25.4 6.2 4.4 18.7 3.4 25.4-1 8.7-5.8 24.4-22.5 26.8-30.7a40.1 40.1 0 0 0 2.8-15.6c-.6-5.1-3.7-7.8-10.3-7.8zm-17.8 7c3 0 5.8.5 8.6 1.4 5.4 1.8 8.7 5 8.7 10.1 0 9.6-9.5 17.2-22.3 21.5-9.9 3.3-13.7-1.8-11.7-16.6.8-6.3 3.8-10.6 8.2-13.4 2.6-1.6 5.5-2.7 8.5-3zm-.6 1c-2.6.5-5 1.4-7.3 2.8-4.2 2.6-7 6.8-7.8 12.8-1.9 14 1.4 18.4 10.3 15.4 12.5-4.1 21.7-11.5 21.7-20.5 0-4.6-3-7.5-8-9.1a28 28 0 0 0-8.9-1.3zm80.9-23.4c-2.7 9.8-15 9.9-26.7 3.3-10.2-5.6-13.8-18-5-22.8l4.4-2.7 2-1.3c1.3-.9 2.6-1.6 4-2.3 4.7-2.5 8.8-2.8 14-.8 9.2 3.7 11 13.4 7.3 26.6zm-20.8-25c-1.4.7-2.6 1.5-3.9 2.3l-2 1.3-2.2 1.4c-.8.5-1.6 1-2.4 1.3-7.9 4.4-4.5 15.8 5 21.2 11.4 6.3 22.8 6.2 25.3-2.7 3.6-12.9 1.9-22-6.7-25.4-4.9-2-8.7-1.7-13.2.7zm17.8 12.2c0 5.7-2.4 9-6.6 10-3.3.7-7.6 0-11.1-1.9l-2-.9-1.5-.9c-4.1-2.4-4.2-5 .3-10.9 6.8-9 20.9-7.2 20.9 4.6zm-1 0c0-5.3-2.9-8.6-7.3-9.2a13 13 0 0 0-11.8 5.2c-4.2 5.5-4.1 7.4-.6 9.5l1.5.8 2 1c3.3 1.6 7.3 2.4 10.3 1.7 3.8-.9 5.9-3.8 5.9-9zm196.5 281c0-12.8 2.4-16.7 18.5-29.8a56.8 56.8 0 0 1 16-9.4l4.2-1.7 4-1.5c9.3-3.8 13.7-6.7 16.5-12a75.4 75.4 0 0 0 4.8-10.7l.3-.8.6-1.4c3.2-8 6-12.1 12.7-16.5a35.3 35.3 0 0 0 8.8-8.3l3.2-4c3.5-4.1 6.5-5.9 11.5-5.9 3 0 5.6-.6 9.6-2 5.4-2.1 6.5-2.4 9-2.3 2.5.1 4.8 1.3 7.1 3.6l6.5 6.8c5.1 5 9.5 6.9 17.8 6.9 4 0 8 .2 12 .4 16 1 22 .6 25.4-2.2 6.9-5.7 11.6-2.7 11.6 7.8 0 10.7-8.6 20-19 20-4.8 0-8.3 1.4-9.3 3.7-1.1 2.4.7 6.1 6 10.5 13.6 11.4 11.2 20.8-7.7 20.8a22 22 0 0 0-14.6 5.2 52.2 52.2 0 0 0-9.8 11.9l-1.6 2.2c-3 4.6-5 7.1-7.3 9.4-6.2 6.2-9.3 7.6-13 6.9l-1-.2c-.9-.3-1.8-.4-2.7-.4-1.6 0-2.4.7-8.2 6.2-4.8 4.7-8 6.8-11.8 6.8-1.3 0-3.5 1.2-6.4 3.5-1.3 1-2.7 2-4.5 3.7l-5 4.2-4.5 3.9c-9.3 7.5-15.6 10.2-20.2 6.5a11.7 11.7 0 0 1-4.6-7.3c-.4-2-.3-3.6.3-7.3.8-5.8.6-8.4-1.9-11.6-2.3-3-3-3.2-3.8-2.4l-1.6 2c-2.2 2.5-4.8 3.5-9 2.8-4.6-.8-5.5-4.1-4.7-10.1l.3-1.6c.6-3.6.6-4.9.2-5.8-.4-.8-1.9-.9-5.2.4l-.8.3a76.3 76.3 0 0 1-19.4 6.7c-6 .8-9.3-1.6-9.3-7.9zm2 0c0 5 2.1 6.6 7 6 4-.6 5.5-1.2 19-6.6l.7-.3c4.2-1.7 6.7-1.6 7.8.6.7 1.4.6 2.7 0 7l-.3 1.5c-.7 5 0 7.3 3 7.8 3.5.6 5.5-.1 7.2-2.2l1.7-2c2-2 3.8-1.2 6.8 2.6 2.9 3.7 3.2 6.8 2.2 13.1-1 6.8-.5 9.4 3.6 12.7 3.5 2.8 9.1.5 17.7-6.5 1.4-1 2.8-2.3 4.5-3.8l5-4.3 4.5-3.7c3.4-2.6 5.8-3.9 7.7-3.9 3 0 6-1.9 10.4-6.2l2.5-2.4 2.4-2.1c1.8-1.5 3.3-2.3 4.7-2.3 1 0 1.8.1 3.1.4l1 .2c3 .6 5.4-.5 11.2-6.3 2.2-2.2 4-4.6 7-9.1l1.6-2.3a54 54 0 0 1 10.2-12.2c4.5-3.8 10.1-5.8 16-5.7 16.8 0 18.5-7 6.3-17.2-6-5-8.1-9.4-6.5-13 1.4-3 5.6-4.8 11.1-4.8 9.3 0 17-8.3 17-18 0-9-2.9-10.8-8.4-6.2-3.9 3.3-10 3.6-26.6 2.6h-1c-5.1-.3-8-.4-11-.4-8.9 0-13.8-2.1-19.2-7.5l-6.5-6.8c-2-2-3.9-2.9-5.9-3-2-.1-3 .2-8.1 2a27.3 27.3 0 0 1-10.3 2.3c-4.3 0-6.8 1.5-10 5.2l-3.2 4a48.3 48.3 0 0 1-9.2 8.6c-6.3 4.2-9 8-12 15.6l-.6 1.4-.2.8-1.6 3.9c-1 2.4-2 4.7-3.3 7-3.2 5.8-7.8 9-17.6 13l-4 1.5a168.7 168.7 0 0 0-12.3 5.8c-2.6 1.4-5 3.1-7.4 5-15.6 12.7-17.7 16.1-17.7 28.2zm133.2-79.8c3 1.6 6.6 2 10.7 1.7 2.5-.2 5-.6 8.8-1.4a54 54 0 0 1 8.3-1.6c2.8-.2 4.9.2 6.3 1.4 1.6 1.3 2 2.7 1.3 4.2-.7 1.4-1 1.8-5 5.1-3.6 3-5.1 4.8-5.1 7 0 7.4 1.3 10.1 7.8 15.7 3.9 3.3 6 6.8 5.3 9.6-.7 3.3-5 5-12.6 5-7.2 0-12.7 4.7-20 14.7l-5 6.9c-1.4 2-3 3.8-4.7 5.5-1 1-2 1.7-3 2.2-3 1.2-5.1 1.5-10 1.7-7.6.3-10.8 1.4-14.9 7a42.9 42.9 0 0 1-13.3 12.3c-.2.2-10.7 6.3-14.8 9-3.8 2.3-6.5 2-8.3-.9-1.2-2-1.9-4.5-2.8-10.3-.9-5-1.3-7-2-9-1-2.2-2.3-3.2-4.1-2.8-6.2 1.2-9 1.4-11 .2-2.4-1.4-3.1-4.6-2.6-10.8.2-2-1-2.8-3.8-3-2.2-.1-4.9.2-9.9 1.1l-.7.1c-8 1.5-10.7 1.8-12.7.8-3-1.4-1.6-5.3 4.2-12.2a53.6 53.6 0 0 1 15.8-13.6c3.7-2 6-2.6 12.1-4 7.3-1.8 10.4-3.6 14-9.4 3-4.7 10.8-18.6 12.2-20.8 3.6-5.7 6.8-9.1 11-11.3 2.7-1.4 4.8-2.9 9.2-6.1l1.4-1c7.9-5.8 12.3-8 17.7-8 4.2 0 6.5 1.4 9.1 4.8l2 2.6 2.5 2.9c2 2 4.2 3.5 6.6 4.7zm-.4 1a25.6 25.6 0 0 1-9.4-8l-2-2.6c-2.5-3.2-4.5-4.4-8.4-4.4-5 0-9.4 2.2-17 7.8l-1.5 1a71.4 71.4 0 0 1-9.3 6.1c-4 2.2-7.1 5.5-10.6 11-1.4 2.2-9.2 16-12.2 20.9-3.8 6-7.1 8-14.6 9.7a42.1 42.1 0 0 0-27.4 17.3c-5.4 6.5-6.5 9.7-4.6 10.7 1.7.8 4.5.5 12.1-.8l.7-.2c5.1-.9 7.8-1.2 10.2-1 3.2.1 5 1.4 4.7 4-.5 5.8.2 8.7 2.1 9.8 1.8 1 4.4.9 10.3-.3 2.4-.5 4 .8 5.1 3.5.9 2 1.3 4 2.1 8.8v.3c1 5.7 1.6 8.1 2.8 10 1.5 2.3 3.5 2.6 6.8.5 4.2-2.7 14.7-8.8 14.8-8.9a41.9 41.9 0 0 0 13.1-12c4.3-6 7.8-7.2 15.7-7.5 4.7-.2 6.8-.5 9.5-1.7.9-.4 1.9-1 2.8-2a38 38 0 0 0 4.6-5.3l5-6.9c7.5-10.3 13.2-15 20.8-15 7.2 0 11-1.7 11.6-4.3.6-2.3-1.3-5.5-5-8.6-6.7-5.8-8.1-8.8-8.1-16.4 0-2.7 1.6-4.8 5.4-7.9 3.8-3.1 4.2-3.5 4.8-4.7.5-1 .2-2-1-3-2.3-1.9-4.7-1.7-13.8.3-4 .9-6.3 1.3-9 1.5-4.2.4-7.9-.1-11.1-1.8zm-28-4c5.6-2.8 9-2.2 12.9 1.4l3 2.9a19 19 0 0 0 14.3 5.7c11.4 0 14 1.4 16.1 8l1.7 5.7c.8 2.6 1.6 5 2.7 7.6 2 5.2 2.6 8.3 1.7 10.2-.8 1.6-2.1 2.2-5.4 2.8l-3.8.9c-1.9.6-3.4 1.4-4.6 2.6L529 500l-3.4 4.1c-7.2 8.6-12.4 12.4-19.6 12.4a17 17 0 0 0-10.6 4c-1.8 1.4-11.6 10.3-15.2 13a73 73 0 0 1-9 6c-4.5 2.5-7.3 3.1-9 2.2-1.3-.8-1.6-2.1-1.9-5.5l-.1-1.9c-.6-4.7-2.3-6.8-7.2-6.8-7.1 0-8.9-1.2-9.7-5.4-1-4.6-2.1-6.7-6.6-9.7-4-2.6-4.3-5.4-1.5-8.2 2-2 4.6-3.5 11.4-6.9a43 43 0 0 0 11-6.7 39 39 0 0 0 8.2-11.6l2.1-4.3 2.7-5a44.2 44.2 0 0 1 23.2-21.1zm-22.4 21.7a116 116 0 0 0-2.6 5l-2 4.3-3 5.2a40 40 0 0 1-5.4 6.6c-2 2-4.7 3.6-11.4 7a42.7 42.7 0 0 0-11.1 6.6c-2.3 2.3-2 4.4 1.4 6.7 4.7 3.1 6 5.4 7 10.3.7 3.7 2 4.6 8.7 4.6 5.5 0 7.6 2.6 8.1 7.7l.2 1.9c.3 3 .6 4.1 1.5 4.7 1.2.7 3.7.1 8-2.3 3-1.7 6-3.6 8.8-5.8 3.5-2.7 13.3-11.6 15.2-13a18 18 0 0 1 11.2-4.2c6.8 0 11.8-3.7 18.8-12l3.5-4.1a60 60 0 0 1 3.4-3.8c1.4-1.3 3-2.3 5-2.9a29 29 0 0 1 4-.9c2.9-.5 4-1 4.6-2.2.7-1.6.3-4.5-1.8-9.4-1-2.5-2-5.1-2.7-7.7l-1.7-5.6c-2-6.2-4.1-7.4-15.1-7.4-6.5 0-10.6-2-15-6l-3-2.9c-3.6-3.3-6.5-3.8-11.8-1.2-12.6 6.4-17.1 10.7-22.8 20.8zm55.9 12c-3 6.4-16.8 15.2-26.7 15.2-5.4 0-7.6-3-7.2-7.8.4-3.5 2.2-8 4-10.6l1.5-2.4a45 45 0 0 1 1.9-2.7c3.6-4.8 7.8-7.4 13.6-7.4 9 0 15.8 9.5 12.9 15.7zm-.9-.4c2.5-5.5-3.6-14.3-12-14.3-5.4 0-9.3 2.5-12.8 7l-1.9 2.7-1.5 2.3a24.8 24.8 0 0 0-3.8 10.2c-.4 4.3 1.5 6.7 6.2 6.7 9.5 0 23-8.5 25.8-14.6zm-69.7 20.7c2.1.2 4.5.8 6 1.8 2 1.5 2.1 3.6-.3 6-5.2 5.2-12.9 4.4-12.9-1.3 0-4.7 3.1-6.9 7.2-6.5zm0 1c-3.6-.3-6.2 1.5-6.2 5.5 0 4.6 6.5 5.3 11.1.6 2-2 2-3.4.4-4.5-1.2-.9-3.4-1.5-5.4-1.6zm29.5-226c4.7 2.4 17.3 8.3 19.4 9.5 2.7 1.4 5.1 3.3 7 5.6a45 45 0 0 1 3.8 5.2c2.4 3.8 0 7.7-6.2 11.6-5 3.2-12.2 6.3-22 9.9-4.8 1.7-19.6 6.6-21 7.2-6.6 2.3-14.9 0-25.2-5.9-3.9-2.3-8-5-13-8.5-2.1-1.7-9.4-7-10.6-7.9-2.8-2-5.6-4-8.6-5.7-4.9-2.6-4.5-6.6.1-12.1 3.3-3.9 4.2-4.7 18.1-16.3a230.2 230.2 0 0 0 13.6-12.5c5.1-5.4 9.8-6.4 15-3.9 2.3 1.1 4.5 2.9 7.4 5.6l8 7.6c5.2 5 9.5 8.3 14.2 10.7zm-.4 1a60.9 60.9 0 0 1-14.5-10.8c-1-1-6.5-6.4-8-7.7-2.8-2.6-5-4.3-7.1-5.4-4.8-2.3-9-1.4-13.8 3.7a231.3 231.3 0 0 1-13.7 12.5 121.5 121.5 0 0 0-18 16.2c-4.3 5.1-4.6 8.4-.5 10.6 2.3 1.2 5 3 8.8 5.8l10.7 7.9c4.1 3 8.4 5.8 12.8 8.4 10 5.9 18.1 8 24.3 5.8 1.5-.5 16.3-5.4 21.1-7.2 9.7-3.5 16.9-6.6 21.8-9.7 5.8-3.7 7.9-7.1 5.9-10.3a44 44 0 0 0-3.7-5c-1.9-2.3-4.2-4.1-6.8-5.5-2-1.1-14.7-7-19.3-9.4zm-38.9 8c3.2-.4 5.7-.1 8.4.7 2.2.7 2.8 1 8.7 3.8 4.7 2.3 8.4 3.8 13.2 5.5 8.4 3 11.3 6.3 8.8 9.8-2 3-8 5.9-17.8 9.2-8.5 2.8-15.5 2.3-21.5-1a35 35 0 0 1-12.1-12.2c-3-4.4-2.8-8.2.1-11.1 2.5-2.4 7-4 12.2-4.7zm.2 1c-5.2.6-9.4 2.1-11.7 4.4-2.5 2.5-2.6 5.8 0 9.8 3.8 5.7 7.3 9.5 11.8 12 5.7 3 12.4 3.6 20.6.8 9.6-3.2 15.5-6.1 17.4-8.8 2-2.8-.5-5.4-8.4-8.2-4.8-1.8-8.5-3.3-13.3-5.6a52 52 0 0 0-8.4-3.8c-2.6-.8-5.4-1-8-.6zM202.5 501.4c0 4.8-1.4 7.5-4.4 9-2.3 1-4.6 1.1-10.8 1.1h-1.8c-9.2 0-17-7.6-17-15.5 0-7.6 10.6-10.5 19.7-5.4 2.8 1.5 4.3 1.9 8.6 2.7 4.4.8 5.7 2.3 5.7 8zm-1 0c0-5.3-.9-6.4-4.9-7.1-4.4-.8-6-1.3-8.8-2.9-8.6-4.7-18.3-2-18.3 4.6 0 7.3 7.4 14.5 16 14.5h1.8c6 0 8.3-.1 10.3-1.1 2.7-1.2 3.9-3.6 3.9-8zm33.3-117.9c3.7-1.3 8.7-2.7 16.1-4.5l20.6-5c19.6-5 31.5-9 38.2-13.4 15-10 36.9-33.9 43.9-47.8 2.2-4.5 4.6-6.4 7.6-6.3 1.3 0 2.6.5 4.4 1.2l3.5 1.7 1.3.7c4.7 2.3 8.3 3.4 12.6 3.4 7.2 0 10 3 8.4 8-1.4 4-6 8.8-11.1 12-8.4 5-11.8 17.2-11.8 33.5a10 10 0 0 1-4 8.4c-2 1.5-4.2 2.6-8.4 4.1l-1 .4c-5 1.7-7 2.8-8.8 4.5-5 5-12.5 7.1-20.3 7.1-1.4 0-2.5 1-4 3.1l-1.5 2.2c-2.6 3.9-4.9 5.7-8.5 5.7-7.8 0-10.7 1-21.8 7a27.7 27.7 0 0 1-14.6 3.6h-1c-4.8.1-7 .3-10.5 1.4-3 1-6 2.2-8.8 3.5-2.2 1-10.6 5-10.3 5-7.8 3.6-13.3 5.9-18.9 7.5-12.4 3.5-18.5 2.2-27.4-4-2.6-2-2.7-4.5-.8-7.7 1.4-2.5 3.9-5.1 8-9l1.8-1.6 6-5.6c2.3-2.3 3-3.5 5.4-7.6 2-3.3 3.4-5 6.3-7 2.3-1.6 5.3-3 9.4-4.5zm.4 1c-4 1.4-7 2.8-9.3 4.3a17.2 17.2 0 0 0-6 6.7 29.2 29.2 0 0 1-5.6 7.9l-5.9 5.5-1.8 1.7a43.8 43.8 0 0 0-7.9 8.7c-1.6 2.8-1.5 4.8.6 6.3 8.6 6.1 14.4 7.4 26.6 4 5.5-1.7 11-4 18.7-7.6l10.2-4.9c3-1.4 6-2.6 9-3.6 3.6-1 6-1.3 10.8-1.4h1c5.7 0 9.1-.8 14.2-3.5 11.1-6.1 14.2-7.1 22.2-7.1 3.2 0 5.2-1.6 7.7-5.3l1.5-2.2c1.7-2.4 3-3.5 4.8-3.5 7.6 0 14.8-2 19.6-6.9 1.9-1.8 4-2.9 9-4.7l1.1-.3c8.6-3.2 11.8-5.7 11.8-11.6 0-16.6 3.5-29.2 12.2-34.4 5-3 9.4-7.7 10.7-11.5 1.4-4.1-.8-6.6-7.4-6.6-4.4 0-8.2-1.1-13-3.5-7.6-3.7-6.9-3.4-8.8-3.5-2.6 0-4.7 1.6-6.8 5.7-7 14.1-29 38.2-44.1 48.2-6.8 4.6-18.9 8.5-38.6 13.5l-20.5 5a188 188 0 0 0-16 4.6zm16.8 4c2 0 4-.2 7.3-.7 5.2-.8 6.6-.9 8.4-.5 2.5.6 3.8 2.4 3.8 5.7 0 4-2.3 7.3-6.6 10.1a70 70 0 0 1-14.2 6.4l-.2.1-2.3.9c-3 1.1-5.3 2.5-9.3 5.4l-.8.6a34 34 0 0 1-23.1 8c-5 0-6.9-2-5.8-5.6 1-2.8 3.6-6.6 7.9-11.1l4.1-4.4 11.5-10.8 1.4-1.2c3.3-2.7 5.7-3 14.1-3l3.8.1zm0 1h-3.8c-8.2-.2-10.4.2-13.5 2.7-.5.3-1 .7-1.3 1.2-.3.2-8.3 7.6-11.5 10.8l-4.1 4.2a34.2 34.2 0 0 0-7.6 10.8c-.9 2.9.5 4.3 4.8 4.3a33 33 0 0 0 22.5-7.8l.8-.6c4-3 6.4-4.4 9.5-5.6l2.3-.8.3-.1a69.4 69.4 0 0 0 14-6.3c4-2.7 6.1-5.6 6.1-9.3 0-2.9-1-4.3-3-4.7-1.6-.4-3-.3-8.1.5-3.3.5-5.3.7-7.4.7zm112.5-45.3c-2 5.4-2 6.7-1 12.7 1.2 7-1.4 16.6-5.5 16.6h-1.5l-.6.1c-3 .2-4.9.2-7-.2-6.5-1-10.4-5.1-10.4-13.4 0-13.9 2.1-19.7 8.1-26.3 1-1.2 1.8-2.4 2.5-3.8l2.8-5c4.4-8.1 7.7-11.5 12.2-10.4 1.2.3 2.2.8 3.6 1.6l1.4.8c1 .7 2 1.2 3 1.6.8.3 1.9.4 4.8.3h.8c3.1 0 4.7 0 5.8.6 1.6 1 1.2 2.6-1.1 5l-4 3.7c-10.5 10.1-12.7 12.4-14 16zm-1-.4c1.4-3.9 3.5-6.1 14.3-16.4l3.8-3.8c2-1.9 2.2-2.8 1.4-3.3-.8-.4-2.4-.6-5.3-.5h-.7c-3.2 0-4.3 0-5.2-.3-1-.4-2-1-3.2-1.7l-1.4-.8c-1-.7-2.1-1.2-3.3-1.5-3.9-1-7 2.2-11.1 9.9l-2.8 5c-.7 1.4-1.6 2.7-2.6 4-5.8 6.4-7.9 12-7.9 25.6 0 7.8 3.5 11.5 9.6 12.4a28.3 28.3 0 0 0 8 .1h.9c3.2 0 5.6-8.9 4.5-15.4-1-6.2-1-7.7 1-13.3zm-9.2 12.5l2.5 1.9c2 1.6 2 3.3 0 6.4-3.7 5.6-8.8 3-8.8-4.6 0-3.8.5-5.7 2-6 1.3-.3 2 .3 4.3 2.3zm-1.4 1.4c-1.5-1.3-2.2-1.8-2.4-1.8-.2 0-.5 1.3-.5 4.1 0 5.9 2.7 7.2 5.2 3.4 1.5-2.2 1.4-2.8.4-3.6l-2.7-2zm223-130.1c2.1-1.2 3.6-1.7 5.8-2.4l.3-.1c3-.9 6-2 8.8-3.5 4.2-2.1 6.3-2 7 .8.4 2 .1 4-1.3 12.7a59.8 59.8 0 0 1-21.2 36.3c-4.3 3.6-7.4 4.4-9.7 2.4-2-1.5-3.1-4.5-4.6-10.4l-1.8-7c-.7-3.1-1.6-6.2-2.7-9.2-2.4-6.8-3-10.8-2-13 .7-1.8 2-2.2 5.5-2.4l3-.3 2-.3 1.6-.3a29.5 29.5 0 0 0 9.2-3.3zm.4.8a38.3 38.3 0 0 1-16.2 4.4c-3.1.2-4.2.5-4.8 1.8-.7 1.9-.2 5.7 2.2 12.2 1 3 2 6.2 2.7 9.3l1.7 7c1.5 5.7 2.6 8.6 4.3 10 1.9 1.5 4.5.9 8.5-2.5a58.8 58.8 0 0 0 20.8-35.7 38.2 38.2 0 0 0 1.3-12.3c-.4-1.9-1.9-2-5.6-.2a49.9 49.9 0 0 1-9 3.7h-.2c-2 .6-3.9 1.4-5.7 2.3zm-4.5 6.6a18 18 0 0 0 3.9-1.4l3.3-1.7c1.5-.7 3-1.3 4.7-1.8 2.7-1 4.6-.8 5.9.3 1 1 1.3 2.3 1.4 4.2v1.4c0 5.6-4.6 16.9-11.3 22.8-4.4 3.8-7.4 4.6-10 2.5-2-1.7-3.5-4.7-6.6-13-1.9-4.8-2-8-.7-10.1 1.1-1.7 2.9-2.4 5.8-2.7l1.3-.2c1.2 0 1.7-.2 2.3-.3zm-2.1 2.3l-1.3.1c-2.4.3-3.6.8-4.3 1.9-1 1.4-.8 4 .8 8.3 3 7.9 4.4 10.8 6.1 12.1 1.6 1.4 3.6.8 7.3-2.4A35.5 35.5 0 0 0 589 236v-1.3c0-1.4-.3-2.3-.8-2.8-.6-.6-1.8-.6-3.9 0a38 38 0 0 0-4.4 1.8l-3.4 1.7a19.5 19.5 0 0 1-6.8 2zm-227.8-89a34 34 0 0 1-7.1 11.4l-2.6 3a46.4 46.4 0 0 0-7.3 10.7 35.2 35.2 0 0 1-12.9 14 83.6 83.6 0 0 1-15.6 7.5c-11 4.4-16.5 1.3-27.3-16.4-2.8-4.7-8.8-8.6-18-12.6-3-1.4-12.8-5.3-14.4-6-5-2.1-7-3.7-6.4-5.8.7-2.3 5.3-4 15.5-6 16.6-3.4 27-3.9 40-3.1 7.8.5 9.6.5 12.7-.3 2-.4 3.9-1.3 6-2.6l2.8-1.7c9.8-6.1 12.9-8 17.3-9.9 6-2.7 10.5-3.3 13.9-1.4 7.2 4.2 7.7 7.7 3.4 19.3zm-1.8-.7c4-10.7 3.6-13.2-2.6-16.7-2.7-1.6-6.6-1-12.1 1.4-4.3 2-7.3 3.8-17 9.8l-2.9 1.8c-2 1.2-4.2 2.2-6.6 2.8-3.3.8-5.2.8-13.3.3a137.5 137.5 0 0 0-50.2 5.7c-2 .8-3 1.5-3.2 2-.1.5 1.5 1.7 5.3 3.4 1.5.7 11.4 4.6 14.5 6 9.5 4.1 15.7 8.2 18.9 13.4 10.3 17 14.8 19.5 24.7 15.6 7.3-3 11.2-4.8 15.4-7.4 5.4-3.6 9.4-7.8 12.1-13.1a47.7 47.7 0 0 1 7.6-11.2l2.6-3c3.4-4 5.3-6.7 6.8-10.8zm-6.7-.3a52.5 52.5 0 0 1-33.3 25.2c-7.8 1.8-12.5-.8-13.1-6-.6-4.4 2.3-9 6-9 3 0 5.6-1.7 15.4-9.2 1.5-1 2.6-2 3.6-2.7a38 38 0 0 1 10.9-6c5.5-1.8 9.3-2.2 11.3-1.3 2.5 1.1 2.2 4.1-.8 9zm-.8-.6c2.7-4.4 3-6.7 1.2-7.5-1.7-.8-5.3-.3-10.7 1.3-2.9.8-6.2 2.8-10.5 5.9l-3.6 2.7c-10.1 7.8-12.6 9.4-16 9.4-3 0-5.5 4-5 8 .6 4.4 4.6 6.7 11.9 5a51.6 51.6 0 0 0 32.7-24.8zM461.2 34.5c13.9 5 20.7 5 31.6 0 3-1.3 5.5-2.9 11-6.8 5.6-3.9 8-5.5 11.1-6.9 4.2-1.9 7.8-2.4 11.3-1.3 3.9 1.3 6.1 12.3 6.7 28.5.5 14.2-.5 28.9-2.4 34.2-1.9 4.9-5.9 8.1-11.5 10a41.7 41.7 0 0 1-13 1.8c-5.8 0-9 2.4-12.2 7.7l-1.7 2.8c-1.8 3-3 4.3-5 5l-3.8 1.7-2.4 1.2-2.7 1.4a39 39 0 0 1-17.2 4.7c-5.7 0-10 2-14 6-1.2 1-4.2 4.4-4.6 4.9-2.6 2.4-6 4.2-10.9 6l-6.3 2.3-2 .8-2.7.8c-5.6 1.1-11.1-.6-18-4.5l-5.8-3.4c-2-1.1-4-1.5-9-1.9l-1.8-.1c-4.8-.4-7.6-1.2-10.2-3-5-3.6-6.8-7.8-5.6-12.3 1.3-5.4 6.5-11 14.8-17.3a169.2 169.2 0 0 1 11.8-8.2c2.7-2 4.8-4 12.8-12l1-1.1c3.5-3.6 6-6 8.2-7.9 2.9-2.5 4.7-6 7.5-13l.6-1.6c2.7-7 4.3-10 6.9-12.4 1.4-1.3 6.7-6.5 7.9-7.5 4-3 8-2.7 19.6 1.4zm-.4 1c-11.2-4-15-4.3-18.6-1.6-1.2 1-6.4 6.1-7.9 7.5-2.4 2.1-4 5.2-6.6 12l-.6 1.5c-2.8 7.3-4.7 10.8-7.8 13.5-3.2 2.8-6.2 5.8-9.1 8.8a97 97 0 0 1-24.7 20.4c-8.2 6.1-13.2 11.6-14.5 16.7-1 4.2.6 8 5.3 11.3 2.3 1.7 5.1 2.4 9.7 2.8l1.7.1c5.2.4 7.3.8 9.5 2l5.8 3.5c6.7 3.8 12 5.4 17.3 4.3a14 14 0 0 0 2.5-.8 67 67 0 0 1 2.1-.8l6.3-2.2c4.8-1.8 8-3.5 10.4-5.9.4-.3 3.5-3.8 4.7-4.9 4.1-4 8.7-6.2 14.7-6.2 5.3 0 10.4-1.6 16.7-4.6l2.7-1.4 2.4-1.2c1.9-1 3-1.4 4-1.8 1.6-.5 2.8-1.8 4.4-4.5l1.7-2.9c3.4-5.5 6.9-8 13.1-8 4.4 0 8.7-.6 12.6-1.9 5.4-1.7 9.2-4.8 11-9.4 1.8-5 2.8-19.7 2.3-33.8-.5-15.5-2.8-26.5-6-27.5s-6.6-.6-10.5 1.2c-3 1.4-5.5 3-11 6.8-5.6 4-8.1 5.5-11.2 7-11.1 5-18.3 5-32.4 0zM475 56c5.4 0 7.6-.2 9.7-1 1.3-.4 10-4.8 14.9-7 1.9-.7 3.6-2.4 6.6-6 2.6-3 3.2-3.7 4.4-4.8 3.7-3.4 7-3.3 10.2 1.2 6.3 9 5.6 16 0 27l-2.4 5.5-1.1 3-.5 1.1c-.7 1.1-1.6 2.2-4 4.7-2.5 2.4-5.2 3.3-11.8 4.3l-3 .5c-6 1.1-9.6 2.7-12.2 6.1a36.6 36.6 0 0 1-15 10.8l-1.8.8-1.8.8a60 60 0 0 0-7.7 3.8 28.4 28.4 0 0 1-9.4 3.5c-8.6 2-12.3 3.8-17.4 9.4-5 5.6-10.1 7.6-16.6 6.7a82 82 0 0 1-23.6-9.5c-6.3-3.2-6.4-7.8-1.4-13.6 3.3-4 3.5-4 19.3-16.4 8.2-6.3 13-10.6 16.7-14.9 2.5-3 4.2-5.7 5-8.3 5.4-18.3 12.4-22 22.7-15.6l7.2 5c3.4 2.1 6.5 2.9 13 2.9zm0 2c-6.8 0-10.4-.9-14-3.3l-7.2-4.9c-9-5.6-14.7-2.7-19.8 14.5a26 26 0 0 1-5.4 9 112 112 0 0 1-17 15.2c-15.6 12.2-15.8 12.3-19 16.1-4.2 5-4.1 8 .8 10.5a81.4 81.4 0 0 0 23 9.3c5.8.8 10.2-1 14.9-6 5.4-6 9.4-7.9 18.3-10 4.5-1.1 6.5-1.8 8.9-3.3 2.5-1.5 5.2-2.8 8-4l1.7-.8 1.8-.8c6.8-3.1 10.9-5.8 14.2-10.1 3-3.9 7-5.7 13.5-6.8l3-.5c6.1-1 8.6-1.8 10.6-3.8 2.3-2.4 3.2-3.3 3.7-4.3l.5-1 1-2.8a74 74 0 0 1 2.6-5.7c5.3-10.4 5.8-16.8 0-25-2.3-3.4-4.3-3.4-7.2-.8a42 42 0 0 0-4.2 4.6c-3.2 3.9-5 5.6-7.3 6.6-4.8 2.1-13.6 6.6-15 7A30 30 0 0 1 475 58zm-12.7 8.6c5.5 3.9 10.3 3.7 18.2.9 5.4-2 6-2.1 7.7-2.1 2.5 0 4.2 1.3 5.3 4.4 1.6 5-2.4 8.6-12.3 12.7-2.7 1.2-16.3 6.2-20 7.8-7.9 3.2-14 6.4-18.9 10.1-13 9.8-18.4 12-23.7 9.7-1.3-.6-2.5-1.2-3.6-2l-2-1.3-2.3-1.4c-3.3-2-2.8-4.3.9-7.3 1.3-1.1 10.6-7.6 13.5-10 7.1-5.6 12-11.4 14.4-18.3 3.1-8.4 5-12 6.8-13.4 1.8-1.1 3.4-.5 6.2 2l4.1 3.6c2 1.7 3.7 3.2 5.7 4.6zm-.6.8c-2-1.4-3.8-2.9-5.7-4.6l-4.1-3.7c-2.5-2.2-3.8-2.6-5-1.8-1.7 1-3.4 4.7-6.4 12.9-2.6 7-7.5 13-14.8 18.8-2.9 2.3-12.2 8.8-13.5 9.8-3.2 2.7-3.5 4.2-1 5.8l2.3 1.4 2 1.3a23 23 0 0 0 3.5 1.9c4.9 2 10 0 22.7-9.6 5-3.8 11.2-7 19.1-10.3l20-7.7c9.5-4 13.1-7.2 11.7-11.4-.9-2.8-2.2-3.8-4.3-3.8-1.6 0-2.1.1-7.3 2-8.2 3-13.4 3.2-19.2-1z" fill="#ffffff" fill-rule="nonzero"/></svg>